<?xml version="1.0" encoding="UTF-8"?>
<!DOCTYPE svg PUBLIC "-//W3C//DTD SVG 1.1//EN" "http://www.w3.org/Graphics/SVG/1.1/DTD/svg11.dtd">
<!-- Creator: CorelDRAW 2020 (64-Bit) -->
<svg xmlns="http://www.w3.org/2000/svg" xml:space="preserve" width="5.2599mm" height="35.4338mm" version="1.1" style="shape-rendering:geometricPrecision; text-rendering:geometricPrecision; image-rendering:optimizeQuality; fill-rule:evenodd; clip-rule:evenodd"
viewBox="0 0 15.56 104.79"
 xmlns:xlink="http://www.w3.org/1999/xlink"
 xmlns:xodm="http://www.corel.com/coreldraw/odm/2003">
 <defs>
  <style type="text/css">
   <![CDATA[
    .fil0 {fill:#FEFEFE}
   ]]>
  </style>
 </defs>
 <g id="Layer_x0020_1">
  <metadata id="CorelCorpID_0Corel-Layer"/>
  <path class="fil0" d="M6.44 66.86c0.06,-2.38 2.93,-3.8 3.9,-1.83 0.55,1.11 -0.36,2.06 -1.04,2.39 -1.18,0.57 -2.24,-0.14 -2.86,-0.56zm-0.62 -1.22c-0.38,-0.66 -0.51,-1.59 -0.46,-2.4l1.46 0.98 -1 1.42zm3.55 -4.26c0.05,-0.03 -0.09,-0.37 0.17,0.06 0.43,0.71 -0.27,1.48 -0.92,1.79 -1.66,0.8 -3.3,-0.86 -3.01,-1.44 0.25,-0.48 0.13,-0.04 1.14,0.19 1.11,0.25 1.99,-0.24 2.61,-0.61zm-3.05 -0.42c0.06,-0.08 0,-0.21 0.53,-0.4 0.62,-0.22 1.4,-0.25 1.92,0.14 -0.6,0.68 -1.48,0.78 -2.45,0.26zm2.74 -1.08c-1.04,-0.3 -1.89,-0.44 -2.88,0.15 -0.41,0.24 -0.8,0.66 -0.87,-0.11 -0.03,-0.38 0.26,-0.95 0.42,-1.28 0.49,0.1 0.81,0.39 1.51,0.43 0.63,0.04 1.07,-0.21 1.58,-0.34l0.24 1.14zm-4.35 -2.25c0.19,0.19 0.21,0.26 0.4,0.46 -0.1,0.26 -0.16,0.5 -0.44,0.65l0.04 -1.11zm1.67 0.36c0.42,-0.29 1.41,-0.38 1.72,0.17 -0.63,0.2 -1.23,0.21 -1.72,-0.17zm-0.7 -0.54c-1.1,-1.04 -0.4,-1.15 0.1,-2.12 1.47,0.29 1.1,0.46 2.88,0.28 0.3,0.84 0.33,0.93 0.14,1.87 -1.7,-0.48 -1.2,-0.95 -3.13,-0.03zm-1.05 -3.13l0.57 0.71c-0.45,0.24 -0.16,0.17 -0.53,0.43l-0.04 -1.14zm3.19 0.48c-0.12,0.07 -0.06,0.09 -0.32,0.13l-0.74 -0.18c0.41,-0.1 0.72,-0.04 1.06,0.05zm-2.01 -0.51c-1.35,-1.08 -1.03,-0.93 -0.52,-2.36 1.47,0.37 1.66,0.91 3.39,0.16 0.53,0.68 0.53,1.75 0.09,2.42 -1.55,-0.85 -1.24,-0.76 -2.95,-0.22zm-1.49 -3.3c0.14,0.09 0.47,0.06 0.36,0.51 -0.02,0.09 -0.16,0.28 -0.3,0.41l-0.06 -0.92zm1.66 0.31c0.55,-0.67 1.68,-0.59 2.19,0.18 -0.81,0.24 -1.49,0.22 -2.19,-0.18zm-0.99 -2.27c2.39,0.41 1.98,0.44 3.52,-0.69 0.41,0.82 0.61,1.37 0.29,2.45 -0.57,-0.27 -0.92,-0.74 -1.83,-0.73 -0.93,0.01 -1.22,0.54 -1.76,0.68 -0.92,-0.89 -0.4,-1.19 -0.23,-1.7zm0.72 -0.63c0.18,-0.4 1.24,-1.2 2.1,-0.6 -0.56,0.75 -1.01,0.83 -2.1,0.6zm-1.04 -2.26c2.8,0.3 1.38,0 3.09,-0.3l0.3 1.1c-2.21,-0.43 -2.06,0.39 -3.17,0.96 -0.5,-0.73 -0.76,-0.7 -0.23,-1.75zm0.63 -0.69c0.43,-0.45 0.98,-0.71 1.66,-0.26 -0.43,0.36 -1.01,0.36 -1.66,0.26zm-0.9 -0.41c-0.39,-0.77 -0.35,-1.06 0.11,-1.92 1.32,-2.45 3.83,-0.39 3.18,1.49 -2.19,-0.7 -1.54,-0.61 -3.29,0.43zm1.77 -45.04l-0.81 0c-0.33,2.76 -0.93,5.7 -1.34,8.48 -1.39,9.39 -2.76,23.06 -1.58,32.25 0.2,1.56 1.02,4.37 1.01,6.41 -0,1.11 -0.11,1.18 0.18,2.31 0.2,0.79 -0.16,1.29 -0.07,2.26 0.09,0.89 0.4,1.07 0.3,1.96 -0.1,0.91 -0.07,1.44 0.14,2.31 0.26,1.06 -0.13,1.1 -0.14,2.12 -0.01,0.99 0.27,1.25 0.48,1.99 0.62,2.27 -0.26,4.12 0.89,6.25 0.75,1.4 -0.31,1.27 1.07,3.87 -0.84,0.56 -1.15,0.67 -0.93,2.08 -8.28,2.23 -5.18,19.28 -2.79,25.62 1.05,2.78 3.39,6.52 6.73,6.87 1.3,0.14 5.1,-0.35 5.94,-0.9 1,-1.09 -0.85,-7.5 -1.95,-8.34 -1.24,-0.95 -3.95,1.38 -5.29,1.51 -1.31,0.13 -1.85,-0.57 -2.3,-1.34 -1.1,-1.85 -2.25,-9.92 -2.17,-12.21 0.14,-3.97 2.49,-3.09 3.88,-2.94 2.89,0.3 3.96,0.85 4.07,-2.65 0.03,-1.13 0.01,-2.35 -0.12,-3.47 -0.07,-0.63 -0.31,-2.44 -0.98,-2.71 -0.58,-0.15 -1.67,-0.05 -2.23,0.12l-1.02 -1.91c-0.39,-0.52 -0.83,-1.26 -0.76,-2.13 2.3,1.73 5.45,-0.31 4.82,-2.71 -0.27,-1.03 -0.76,-1.09 -1.43,-1.66 0.25,-0.26 0.64,-0.8 0.67,-1.43 0.05,-0.93 -0.49,-1.11 -0.58,-1.7 -0.14,-0.91 0.09,-0.81 -0.33,-1.75 -0.35,-0.8 0.09,-0.68 0.17,-1.64 0.06,-0.86 -0.32,-1.34 -0.31,-1.68 0,-0.35 0.51,-0.77 0.52,-1.69 0.02,-0.91 -0.25,-1.13 -0.47,-1.81 -0.22,-0.69 0.94,-1.68 -0.05,-3.45 -0.65,-1.15 -0.39,-0.05 -0.55,-1.64 -0.07,-0.62 -0.55,-1.04 -0.48,-1.51 0.13,-0.81 0.52,-0.77 0.14,-1.94 -0.3,-0.94 -1.16,-1.91 -2.3,-1.98 -1.31,-0.08 -1.82,0.77 -2.28,1.44 -0.03,0.04 -0.08,0.12 -0.11,0.16 -0.12,0.16 -0.09,0.13 -0.19,0.23 -0.2,-1.76 -0.55,-3.38 -0.68,-5.26 -0.67,-9.68 0.87,-22.96 2.42,-32.65 0.26,-1.61 0.68,-3.52 0.84,-5.12z"/>
 </g>
</svg>
