<?xml version="1.0" encoding="UTF-8"?>
<!DOCTYPE svg PUBLIC "-//W3C//DTD SVG 1.1//EN" "http://www.w3.org/Graphics/SVG/1.1/DTD/svg11.dtd">
<!-- Creator: CorelDRAW 2020 (64-Bit) -->
<svg xmlns="http://www.w3.org/2000/svg" xml:space="preserve" width="57.4945mm" height="54.3799mm" version="1.1" style="shape-rendering:geometricPrecision; text-rendering:geometricPrecision; image-rendering:optimizeQuality; fill-rule:evenodd; clip-rule:evenodd"
viewBox="0 0 1573.78 1488.53"
 xmlns:xlink="http://www.w3.org/1999/xlink"
 xmlns:xodm="http://www.corel.com/coreldraw/odm/2003">
 <defs>
  <style type="text/css">
   <![CDATA[
    .fil0 {fill:#FEFEFE;fill-rule:nonzero}
    .fil1 {fill:#C7CC4C;fill-rule:nonzero}
   ]]>
  </style>
 </defs>
 <g id="Layer_x0020_1">
  <metadata id="CorelCorpID_0Corel-Layer"/>
  <g id="_3133659051984">
   <path class="fil0" d="M262.37 1477.84c31.7,-1.16 63.38,-2.25 95.09,-3.3 6.54,-0.21 13.08,-0.35 19.63,-0.52 9.24,-0.25 18.46,-0.49 27.69,-0.74 5.14,-0.13 10.28,-0.16 15.43,-0.23 10.86,-0.15 21.72,-0.3 32.58,-0.45 13.88,-0.19 27.74,-0.19 41.63,-0.23 13.42,-0.04 26.85,-0.08 40.27,-0.12 10.97,-0.03 21.94,-0.06 32.93,-0.09 4.66,-0.01 9.32,-0.05 13.98,-0.03 18.35,0.05 36.71,0.11 55.06,0.16 4.13,0.01 8.26,-0.04 12.39,-0.08 10.87,-0.11 21.74,-0.22 32.61,-0.33 4.28,-0.04 8.55,-0.08 12.83,-0.13 1.61,-0.02 3.22,-0.01 4.83,-0.05 7.43,-0.17 14.87,-0.34 22.31,-0.51 14.34,-0.33 28.69,-0.58 43.02,-1.04 17.81,-0.58 35.62,-1.16 53.43,-1.74 11.21,-0.36 22.41,-0.79 33.62,-1.2 5.42,-0.2 10.84,-0.41 16.26,-0.6 14.48,-0.52 28.96,-1 43.44,-1.5 6.53,-0.22 13.07,-0.48 19.61,-0.67 7.4,-0.21 14.81,-0.41 22.21,-0.62 9.98,-0.28 19.96,-0.56 29.93,-0.83 4.29,-0.12 8.58,-0.17 12.88,-0.23 10.88,-0.16 21.76,-0.31 32.64,-0.47 5.32,-0.08 10.65,-0.21 15.97,-0.22 18.13,-0.05 36.26,-0.11 54.39,-0.16 14.81,-0.05 29.62,-0.04 44.43,-0.06 5.92,-0.01 11.86,-0.08 17.78,-0.02 7.74,0.08 15.48,0.16 23.22,0.25 9.65,0.1 19.3,0.21 28.96,0.31 4.62,0.05 9.24,0.18 13.87,0.29 15.21,0.35 30.43,0.76 45.65,1.04 10.33,0.19 20.67,0.38 31,0.58 5.28,0.1 10.57,0.23 15.85,0.28 9.67,0.09 19.34,0.18 29.02,0.27 4.45,0.04 8.88,0.08 13.33,0.12 1.54,0.01 3.08,0.05 4.61,0.02 9.07,-0.15 18.13,-0.3 27.19,-0.44 6.66,-0.11 13.32,-0.18 19.98,-0.33 15.56,-0.34 31.12,-0.67 46.68,-1.02 8.71,-0.2 17.42,-0.4 26.13,-0.6 5.4,-0.12 10.79,-0.24 16.18,-0.36 2.43,-0.05 4.86,-0.14 7.29,-0.16 8.97,-0.08 17.94,-0.18 26.91,-0.27 4.95,-0.05 9.91,-0.1 14.86,-0.15 5.2,-0.05 10.4,-0.01 15.6,0.02 1.6,0.01 3.02,0.25 4.24,0.94 1.16,0.66 1.87,1.59 1.96,2.57 0.09,0.98 -0.44,1.96 -1.47,2.7 -0.97,0.69 -2.54,1.25 -4.04,1.25 -4.71,-0.03 -9.42,-0.09 -14.13,-0.04 -4.55,0.05 -9.11,0.09 -13.66,0.14 -9.45,0.09 -18.9,0.19 -28.36,0.28 -5.55,0.06 -11.1,0.24 -16.65,0.36 -10.18,0.23 -20.37,0.46 -30.56,0.69 -15.27,0.35 -30.55,0.67 -45.82,1 -15.33,0.33 -30.67,0.52 -46,0.77 -2.15,0.03 -4.3,0.07 -6.46,0.1 -2.49,0.04 -5,-0.05 -7.48,-0.07 -10.63,-0.1 -21.26,-0.2 -31.88,-0.3 -15.09,-0.14 -30.18,-0.48 -45.26,-0.76 -14.62,-0.27 -29.23,-0.62 -43.85,-0.96 -7.13,-0.17 -14.26,-0.33 -21.39,-0.5 -1.9,-0.04 -3.82,-0.04 -5.72,-0.06 -4.99,-0.05 -9.99,-0.11 -14.98,-0.16 -14.22,-0.15 -28.43,-0.37 -42.65,-0.36 -16.67,0.02 -33.34,0.01 -50.01,0.06 -17.77,0.05 -35.54,0.11 -53.32,0.16 -14.58,0.04 -29.15,0.35 -43.73,0.56 -4.51,0.07 -9.02,0.13 -13.53,0.19 -1.89,0.03 -3.78,0.03 -5.67,0.08 -7.4,0.21 -14.81,0.41 -22.21,0.62 -14.35,0.4 -28.71,0.77 -43.05,1.26 -33.82,1.16 -67.64,2.36 -101.47,3.59 -15.61,0.57 -31.24,1.02 -46.85,1.53 -4.9,0.16 -9.8,0.36 -14.71,0.47 -8.51,0.19 -17.03,0.39 -25.55,0.59 -13.91,0.33 -27.82,0.72 -41.73,0.86 -10.78,0.11 -21.56,0.22 -32.34,0.32 -4.44,0.04 -8.87,0.09 -13.31,0.13 -1.84,0.02 -3.68,0.06 -5.52,0.05 -17.48,-0.05 -34.97,-0.1 -52.45,-0.16 -14.09,-0.04 -28.16,0.04 -42.24,0.08 -13.37,0.04 -26.72,0.07 -40.09,0.11 -10.78,0.03 -21.57,0.07 -32.35,0.1 -4.28,0.01 -8.56,0.01 -12.86,0.07 -17.78,0.25 -35.56,0.5 -53.35,0.74 -6.15,0.09 -12.3,0.33 -18.45,0.49 -9.52,0.25 -19.02,0.51 -28.53,0.76 -5.99,0.16 -11.96,0.38 -17.93,0.58 -8.17,0.27 -16.32,0.54 -24.49,0.81 -14.65,0.48 -29.29,1.03 -43.93,1.57 -32.77,1.2 -65.53,2.41 -98.29,3.62 -3.19,0.12 -6.01,-1.48 -6.2,-3.51 -0.19,-2.03 2.32,-3.82 5.52,-3.94 9.74,-0.36 19.47,-0.72 29.2,-1.08 19.47,-0.72 38.93,-1.44 58.39,-2.15l0 0z"/>
   <path class="fil1" d="M1080.29 204.17l0.62 0.34c1.43,0.81 2.86,1.62 4.29,2.42 1.24,0.69 2.49,1.49 3.59,2.21l0.07 0.05c0.56,0.36 1.1,0.71 1.64,1.05l0.21 0.12 0.55 0.35c2.37,1.48 4.75,2.97 7.12,4.46 1.08,0.68 2.11,1.47 3.1,2.23l0.23 0.17c0.37,0.28 0.74,0.56 1.11,0.84l4.01 2.97 3.9 2.89 0.22 0.16c0.25,0.19 0.51,0.38 0.79,0.57l0.05 0.04c0.54,0.39 1.16,0.83 1.69,1.28l0.07 0.07c0.74,0.63 1.48,1.26 2.21,1.89l3.99 3.42 3.99 3.42c2.85,2.45 5.6,5.09 8.24,7.65l0.06 0.05 0.45 0.44 0.51 0.49c0.53,0.51 1.05,1.01 1.58,1.52 2.98,2.84 5.9,5.83 8.72,8.72l0.16 0.17 1.43 1.47c0.37,0.38 0.74,0.76 1.11,1.13l0.14 0.14 0.04 0.04c0.8,0.8 1.8,1.8 2.7,2.79l6.08 6.66 0.08 0.1c0.42,0.47 0.86,0.93 1.29,1.4 0.89,0.95 1.88,2 2.78,3.09 1.89,2.27 3.79,4.55 5.68,6.82 0.49,0.59 0.98,1.17 1.47,1.75l0.1 0.13c0.84,0.99 1.88,2.23 2.83,3.42l2.99 3.77 1.78 2.26 2.61 3.3 2.65 3.33c1.22,1.54 2.39,3.12 3.52,4.65l1.02 1.38c1.88,2.55 3.77,5.08 5.66,7.62 0.73,0.99 1.4,2.03 2.04,3.05 0.27,0.44 0.54,0.86 0.81,1.28l2.22 3.43 3.28 5.06c0.77,1.2 1.51,2.48 2.15,3.61l0.13 0.23 0.05 0.1c1.7,3 3.4,6 5.1,9l0.03 0.07c0.71,1.25 1.45,2.56 2.12,3.91l1.13 2.28 3.42 6.92c1.03,2.09 1.95,3.97 2.77,5.93l3.82 9.2 0.45 1.08 0.05 0.1 0.04 0.11c0.48,1.15 0.98,2.34 1.42,3.53l1.72 4.72 1.72 4.72 0.28 0.76c0.45,1.21 0.95,2.59 1.35,3.94l1.41 4.83 1.42 4.83 0.19 0.64c0.4,1.36 0.81,2.76 1.13,4.18l2.07 9.36 0.13 0.53 0.5 2.29c0.2,0.86 0.31,1.79 0.42,2.69l0.01 0.13c0.05,0.41 0.1,0.81 0.16,1.21l0.73 5.12 0.72 4.97c0.24,1.63 0.35,3.22 0.48,4.91l0.02 0.28 0.7 9.35c0.02,0.37 0.03,0.73 0.02,1.14l0 0.33 0 2.62 0 2.42 0.01 2.51 0 2.51c-0,0.24 0,0.48 0.01,0.72l0 0.1c0.01,0.38 0.01,0.87 -0.01,1.32l-0.35 6.37 -0.11 2.08 -0.05 0.97 -0.03 0.65c-0.1,1.8 -0.19,3.65 -0.36,5.45l-0.04 0.33c-0.02,0.23 -0.04,0.45 -0.07,0.68l0.02 -0.34 -0.6 5.71 -0.21 1.9 -0.69 6.4c-1.33,12.3 -3.59,23.17 -6.92,33.24l-1.62 4.89 -1.61 4.87c-0.68,2.05 -1.54,4.09 -2.29,5.9l-0.04 0.1 -2.08 4.98 -1.85 4.42c-0.55,1.31 -1.18,2.59 -1.8,3.84l-0.36 0.74 -0.95 1.93 -0.03 0.06c-1.78,3.63 -3.8,7.75 -5.86,11.63l-1.02 1.91 -0.19 0.35c-1.83,3.45 -3.9,7.35 -5.95,11.04l-0.83 1.49c-3.85,6.93 -7.84,14.1 -12.47,20.73 -4.6,6.59 -9.48,12.49 -14.52,17.55 -4.57,4.6 -9.94,9.22 -16.9,14.54 -2.63,2.01 -5.49,4.05 -8.49,6.07 -2.69,1.8 -5.32,3.55 -8.12,5.17 -2.42,1.4 -4.84,2.81 -7.26,4.21l-2.01 1.16 -2 1.16 -0.45 0.26c-0.38,0.22 -0.72,0.43 -1.07,0.6l-7.96 4 -0.98 0.5c-1.88,0.95 -3.83,1.93 -5.8,2.77l-4.2 1.78 -4.15 1.77c-0.39,0.17 -0.79,0.34 -1.18,0.51l-0.42 0.18 -0.09 0.04c-1.19,0.53 -2.43,1.07 -3.68,1.52l-8.95 3.25c-3.74,1.36 -7.51,2.55 -11.54,3.65 -3.08,0.84 -6.41,1.6 -10.15,2.33 -2.86,0.56 -5.9,1.13 -8.95,1.49l-4.81 0.57 -4.47 0.53c-1.63,0.19 -3.4,0.39 -5.27,0.49l-4.91 0.26 -4.91 0.25c-1.46,0.08 -2.97,0.05 -4.3,0.03 -0.51,-0.01 -1,-0.02 -1.51,-0.02l-0.22 -0.01 -7.8 -0.06c-0.51,-0.01 -1.03,-0.05 -1.53,-0.09l-0.08 -0.01c-0.27,-0.02 -0.54,-0.05 -0.81,-0.06l-1.35 -0.09 -1.33 -0.09 -2.9 -0.19c-0.52,-0.04 -1.04,-0.07 -1.56,-0.1l-0.05 -0c-1.97,-0.12 -3.99,-0.24 -5.97,-0.51l-5.64 -0.76 -4 -0.54c-3.79,-0.51 -7.61,-1.19 -11.3,-1.84l-0.13 -0.02 -0.94 -0.17c-0.88,-0.16 -1.75,-0.31 -2.63,-0.47 -1.37,-0.24 -2.73,-0.54 -4.06,-0.83l-0.07 -0.01 -0.48 -0.11 -0.94 -0.21 -4.99 -1.08 -3.22 -0.7 -0.3 -0.07c-0.36,-0.08 -0.73,-0.19 -1.09,-0.28l-0.12 -0.04c-0.17,-0.05 -0.34,-0.1 -0.51,-0.15l-2.21 -0.61 -2.89 -0.8c-0.68,-0.19 -1.37,-0.37 -2.06,-0.56 -1.3,-0.35 -2.91,-0.78 -4.42,-1.23 -1.08,-0.33 -2.15,-0.65 -3.23,-0.98l-0.81 -0.24 -0.27 -0.08c-3.44,-1.03 -6.53,-1.97 -9.61,-2.94l-9.49 -3c-1.42,-0.45 -2.83,-0.97 -4.2,-1.47l-0.11 -0.04 -1.13 -0.41c-4.41,-1.6 -9.47,-3.45 -15.46,-5.65 -3.96,-1.46 -8.03,-3.15 -11.61,-4.64l-0.08 -0.03c-0.95,-0.4 -1.9,-0.79 -2.86,-1.18 -0.54,-0.22 -1.07,-0.49 -1.59,-0.74 -0.34,-0.17 -0.6,-0.3 -0.87,-0.42l-2.47 -1.17 -2.55 -1.21c-1.68,-0.8 -3.41,-1.66 -5.28,-2.62 -4.72,-2.43 -9.45,-4.93 -14.47,-7.62 -3.54,-1.9 -7.13,-3.88 -10.29,-5.64l-0.22 -0.12 -2.15 -1.19 -0.06 -0.03c-0.76,-0.42 -1.52,-0.84 -2.27,-1.26 -3.25,-1.81 -6.72,-3.79 -10,-5.99 -3.82,-2.56 -7.42,-5.45 -10.59,-8 -0.22,-0.18 -0.45,-0.35 -0.67,-0.52 -0.46,-0.36 -0.97,-0.75 -1.41,-1.16l-1.66 -1.54 -1.71 -1.58c-0.24,-0.22 -0.49,-0.44 -0.74,-0.67l-0.05 -0.05c-0.47,-0.43 -0.97,-0.87 -1.41,-1.32l-1.46 -1.52 -1.49 -1.55c-3.05,-3.18 -6.22,-6.71 -9.97,-11.1 -5.27,-6.16 -10.65,-12.92 -14.36,-20.53 -1.05,-2.14 -1.95,-4.37 -2.84,-6.53l-0.03 -0.08 -0.28 -0.68 -0.03 -0.06c-0.36,-0.88 -0.73,-1.79 -1.04,-2.69 -0.88,-2.52 -1.65,-4.81 -2.23,-7.17l-0.39 -1.56c-0.99,-3.97 -2.11,-8.48 -3.04,-12.84 -0.24,-1.11 -0.47,-2.21 -0.7,-3.32l-0.02 -0.11c-0.55,-2.62 -1.12,-5.32 -1.75,-8 3.7,2.08 7.44,4.09 11.21,6.03 4.1,2.11 8.23,4.14 12.37,6.16 4.76,2.31 9.49,4.71 14.29,6.92 5.33,2.45 10.77,4.69 16.41,6.3 2.58,0.74 5.16,1.47 7.75,2.21 4.76,1.35 9.56,2.55 14.36,3.76 4.25,1.07 8.54,2.01 12.84,2.82 3.63,0.68 7.24,1.36 10.91,1.85 4.82,0.64 9.67,0.85 14.53,0.98 2.31,0.06 4.63,0.16 6.94,0.16 1.69,-0.01 3.38,-0.01 5.06,-0.01 0.79,-0 1.59,0.02 2.38,-0.01 2.63,-0.11 5.26,-0.23 7.88,-0.34 1.06,-0.05 2.12,-0.2 3.17,-0.3 1.47,-0.14 2.93,-0.27 4.39,-0.41 2.62,-0.25 5.21,-0.76 7.81,-1.17 2.19,-0.35 4.36,-0.79 6.53,-1.23 4.28,-0.86 8.53,-1.87 12.74,-3.01 1.66,-0.45 3.32,-0.9 4.97,-1.35 0.75,-0.21 1.51,-0.39 2.24,-0.62 2.61,-0.8 5.22,-1.61 7.83,-2.41 0.8,-0.25 1.58,-0.57 2.36,-0.86 1.5,-0.56 3,-1.11 4.49,-1.66 2.38,-0.88 4.68,-1.94 7.01,-2.95 0.88,-0.38 1.79,-0.73 2.64,-1.16 1.16,-0.59 2.32,-1.18 3.48,-1.77 2.03,-1.03 4.03,-2.06 6.02,-3.16 3.45,-1.91 6.92,-3.79 10.23,-5.93 1.58,-1.02 3.13,-2.07 4.64,-3.19 1.35,-1 2.76,-1.97 4.04,-3.05 0.81,-0.69 1.61,-1.37 2.42,-2.06 1.73,-1.47 3.46,-2.92 5.12,-4.47 1.25,-1.18 2.51,-2.35 3.76,-3.53 0.45,-0.43 0.9,-0.85 1.33,-1.3 1.13,-1.19 2.26,-2.39 3.39,-3.58 0.61,-0.65 1.26,-1.28 1.85,-1.95 1.74,-2 3.47,-4 5.21,-6.01 0.7,-0.81 1.34,-1.68 2,-2.52 1,-1.28 1.99,-2.55 2.99,-3.82 1.4,-1.79 2.67,-3.68 3.97,-5.54 0.6,-0.86 1.25,-1.7 1.8,-2.58 0.61,-0.96 1.21,-1.93 1.82,-2.9 1.17,-1.88 2.37,-3.74 3.48,-5.65 0.88,-1.52 1.75,-3.05 2.64,-4.57 0.38,-0.66 0.79,-1.31 1.14,-1.99 1.26,-2.5 2.53,-4.99 3.79,-7.48 0.42,-0.83 0.77,-1.69 1.13,-2.55 0.6,-1.43 1.2,-2.85 1.8,-4.28 0.47,-1.1 0.93,-2.21 1.4,-3.31 0.32,-0.76 0.53,-1.58 0.79,-2.36 0.56,-1.68 1.12,-3.36 1.68,-5.04 0.2,-0.62 0.43,-1.23 0.61,-1.85 0.8,-2.78 1.59,-5.56 2.39,-8.34 1.19,-4.15 2.32,-8.32 3.42,-12.5 0.59,-2.25 1.23,-4.49 1.77,-6.77 0.64,-2.72 1.29,-5.44 1.93,-8.15 0.21,-0.87 0.34,-1.76 0.51,-2.64 0.31,-1.61 0.62,-3.22 0.93,-4.83 0.41,-2.14 0.77,-4.3 1.14,-6.46 0.35,-2.04 0.7,-4.09 1,-6.14 0.25,-1.75 0.5,-3.49 0.76,-5.24 0.16,-1.15 0.38,-2.3 0.5,-3.46 0.27,-2.66 0.53,-5.32 0.79,-7.98 0.22,-2.19 0.36,-4.39 0.52,-6.59 0.33,-4.37 0.64,-8.74 0.84,-13.12 0.07,-1.66 0.15,-3.32 0.22,-4.98 0.04,-0.86 0.11,-1.73 0.12,-2.6 0.01,-2.7 0.03,-5.41 0.04,-8.11 0,-0.82 -0.06,-1.64 -0.1,-2.45 -0.07,-1.6 -0.15,-3.2 -0.22,-4.8 -0.1,-2.21 -0.27,-4.41 -0.42,-6.62 -0.15,-2.14 -0.32,-4.26 -0.56,-6.39 -0.29,-2.6 -0.52,-5.22 -0.91,-7.8 -0.41,-2.74 -0.82,-5.48 -1.24,-8.22 -0.38,-2.49 -0.9,-4.97 -1.35,-7.45 -0.4,-2.22 -0.98,-4.4 -1.5,-6.59 -0.26,-1.1 -0.47,-2.23 -0.79,-3.32 -0.27,-0.93 -0.55,-1.86 -0.82,-2.79 -0.64,-2.2 -1.23,-4.42 -1.96,-6.57 -0.92,-2.74 -1.84,-5.48 -2.77,-8.21 -0.24,-0.73 -0.54,-1.45 -0.82,-2.17 -0.59,-1.55 -1.18,-3.09 -1.77,-4.64 -0.81,-2.13 -1.68,-4.22 -2.57,-6.32 -0.88,-2.05 -1.73,-4.11 -2.65,-6.14 -1.15,-2.55 -2.3,-5.1 -3.45,-7.65 -0.41,-0.89 -0.87,-1.76 -1.3,-2.64 -0.72,-1.45 -1.44,-2.9 -2.16,-4.35 -0.96,-1.94 -1.96,-3.85 -2.96,-5.77 -0.97,-1.86 -1.93,-3.73 -2.96,-5.56 -0.85,-1.53 -1.71,-3.07 -2.56,-4.6 -0.32,-0.58 -0.63,-1.17 -0.98,-1.73 -1.48,-2.41 -2.97,-4.8 -4.45,-7.2 -1.25,-2.03 -2.64,-3.99 -3.96,-5.98 -3.86,-5.81 -7.88,-11.5 -11.95,-17.17 0.13,0.03 0.26,0.07 0.39,0.11 4.23,1.18 8.8,2.91 14.36,5.45l0.33 0.15 2.19 1 2.2 1c0.22,0.1 0.45,0.2 0.67,0.3 0.65,0.29 1.16,0.51 1.65,0.76l4.08 2.08 3.93 2c3.33,1.7 6.67,3.51 9.62,5.12l0.11 0.06 0.71 0.38 0.71 0.39c0.72,0.39 1.44,0.79 2.17,1.17 1.26,0.68 2.52,1.38 3.77,2.07 1.46,0.81 2.9,1.63 4.35,2.45l0 0z"/>
   <path class="fil0" d="M1106.87 1443.73c0.01,0.22 0.03,0.43 0.04,0.64 -0.01,-0.21 -0.03,-0.42 -0.04,-0.64l0 0zm-6.56 -811.05c1.18,2.42 2.22,6.52 2.03,10.08 -0.54,10.16 -1.05,20.32 -1.26,30.53 -0.08,4.15 -0.22,8.3 -0.24,12.45 -0.04,5.55 -0.07,11.09 -0.11,16.64 -0.11,17.62 -0.08,35.24 -0.09,52.86 -0.01,16.32 -0.09,32.66 0.01,48.98 0.06,10.59 0.13,21.19 0.19,31.78 0.06,9.2 0.27,18.39 0.41,27.59 0.53,35.81 0.98,71.62 1.33,107.44 0.35,34.83 0.5,69.67 0.6,104.51 0.05,18.28 0.05,36.56 0.11,54.84 0.06,17.63 0.39,35.26 0.64,52.87 0.26,17.62 0.54,35.23 0.77,52.85 0.23,17 0.18,34.03 0.2,51.04 0.07,35.69 -0.05,71.37 0.6,107.04 0.16,8.81 0.43,17.62 0.68,26.41 0.24,8.3 0.41,16.62 0.82,24.9 0.02,0.22 0.05,0.44 0.07,0.66 0.39,3.84 0.28,7.53 -0.7,10.98 -0.91,3.19 -2.41,5.57 -4.15,6.56 -1.8,1.01 -3.75,0.49 -5.35,-1.44 -1.48,-1.77 -2.83,-5.01 -3.19,-8.52 -0.6,-5.86 -0.73,-11.96 -0.96,-17.92 -0.18,-4.7 -0.28,-9.42 -0.4,-14.13 -0.21,-8.06 -0.51,-16.1 -0.65,-24.16 -0.32,-17.5 -0.53,-35.02 -0.59,-52.54 -0.13,-35.93 -0.06,-71.86 -0.26,-107.78 -0.05,-8.54 -0.2,-17.09 -0.34,-25.63 -0.14,-8.76 -0.3,-17.52 -0.42,-26.29 -0.13,-8.76 -0.29,-17.53 -0.38,-26.29 -0.1,-8.9 -0.26,-17.8 -0.28,-26.7 -0.12,-36.14 -0.08,-72.27 -0.35,-108.41 -0.12,-16.62 -0.18,-33.25 -0.34,-49.86 -0.2,-19.91 -0.42,-39.8 -0.67,-59.7 -0.2,-15.64 -0.4,-31.27 -0.64,-46.89 -0.15,-10.32 -0.3,-20.64 -0.46,-30.96 -0.14,-9.62 -0.11,-19.26 -0.17,-28.88 -0.09,-15.94 -0.04,-31.88 -0.03,-47.81 0.01,-17.92 -0.04,-35.85 0.08,-53.77 0.06,-10.14 0.12,-20.26 0.33,-30.39 0.08,-4.06 0.15,-8.11 0.33,-12.16 0.31,-6.91 0.61,-13.8 0.98,-20.7 0.08,-1.26 0.17,-2.53 0.25,-3.79 0.33,-2.42 0.93,-4.51 1.78,-6.29 1.3,-2.67 3.08,-4.18 4.91,-4.18 1.83,0 3.61,1.51 4.91,4.18l0 0z"/>
   <path class="fil0" d="M1044.68 643.06c-1.66,36.25 -2.66,72.51 -3.76,108.78 -0.55,18.06 -1.07,36.12 -1.69,54.18 -0.57,16.66 -1.66,33.29 -2.26,49.94 -0.34,9.62 -0.69,19.23 -1.04,28.85 -0.31,8.44 -0.71,16.88 -1.03,25.33 -0.68,17.99 -1.24,35.98 -1.79,53.97 -1.07,34.63 -2.55,69.26 -4.42,103.85 -0.96,17.83 -1.89,35.65 -2.57,53.49 -0.34,8.98 -0.68,17.94 -1.09,26.9 -0.43,9.4 -0.94,18.79 -1.46,28.19 -0.45,8.12 -1.05,16.23 -1.58,24.34 -0.65,9.81 -1.34,19.61 -2.04,29.42 -0.56,7.74 -1.18,15.48 -1.71,23.23 -0.63,9.28 -1.26,18.57 -1.89,27.85 -0.63,9.33 -1.39,18.65 -2.05,27.98 -0.6,8.5 -1.18,17 -1.84,25.48 -0.68,8.74 -1.32,17.49 -1.97,26.23 -0.66,8.8 -1.41,17.58 -2.15,26.37 -0.38,4.59 -0.75,9.19 -1.11,13.79 -0.39,5.02 -0.71,10.06 -1.13,15.07 -0.53,6.25 -1.08,12.48 -1.72,18.7 -0.46,4.4 -0.96,8.78 -1.43,13.16 -0.02,0.28 -0.05,0.57 -0.07,0.86 -0.12,1.25 -0.24,2.51 -0.36,3.76 -0.4,2.4 -1.06,4.48 -1.98,6.24 -1.37,2.64 -3.2,4.15 -5.04,4.15 -1.83,0 -3.57,-1.51 -4.78,-4.15 -1.13,-2.46 -2,-6.44 -1.73,-10.01 0.55,-7.46 1.51,-14.87 2.29,-22.27 0.7,-7.7 1.27,-15.41 1.87,-23.14 0.68,-8.84 1.43,-17.66 2.15,-26.49 0.7,-8.46 1.35,-16.91 1.98,-25.37 0.66,-8.8 1.4,-17.6 2.01,-26.4 1.28,-18.43 2.68,-36.83 3.93,-55.26 1.2,-17.77 2.52,-35.51 3.8,-53.26 1.28,-17.6 2.37,-35.25 3.34,-52.89 0.94,-17.05 1.51,-34.14 2.21,-51.21 0.7,-17.17 1.68,-34.31 2.57,-51.47 0.93,-17.99 1.76,-35.97 2.49,-53.97 0.74,-18.18 1.36,-36.34 1.92,-54.52 0.53,-17.16 1.05,-34.33 1.78,-51.48 0.76,-17.84 1.33,-35.7 2.08,-53.55 0.36,-8.58 0.81,-17.15 1.21,-25.73 0.43,-9.3 0.8,-18.59 1.13,-27.89 0.61,-17.87 1.08,-35.74 1.62,-53.59 0.53,-17.41 1.06,-34.81 1.61,-52.21 0.48,-15.09 1.11,-30.17 1.8,-45.25 0.17,-3.79 0.92,-7.3 2.33,-10.01 1.37,-2.64 3.2,-4.15 5.04,-4.15 3.69,0 6.87,6.44 6.51,14.16l0 0z"/>
   <path class="fil0" d="M1038.77 685.09c2.71,0.33 5.42,0.6 8.14,0.7 2.79,0.1 5.58,0.2 8.36,0.3 5.72,0.2 11.43,0.41 17.15,0.61 5.9,0.21 11.79,0.42 17.69,0.63 3.78,0.13 6.83,3.41 6.69,7.19 -0.14,3.78 -3.41,6.83 -7.19,6.69 -11.14,-0.39 -22.27,-0.79 -33.41,-1.19 -3.01,-0.11 -6.03,-0.21 -9.05,-0.32 -2.98,-0.11 -5.93,-0.37 -8.88,-0.72 -0.61,-0.11 -1.22,-0.21 -1.83,-0.32 -1.17,-0.37 -2.17,-1 -3,-1.89 -1.25,-1.34 -1.92,-3.15 -1.86,-4.98 0.07,-1.83 0.87,-3.59 2.21,-4.84 1.13,-1.05 2.85,-1.89 4.46,-1.89 0.18,0 0.35,0.01 0.52,0.03l0 0z"/>
   <path class="fil0" d="M1037.74 747.91c2.83,0.2 5.65,0.5 8.49,0.62 2.71,0.12 5.41,0.2 8.12,0.3 5.44,0.2 10.87,0.54 16.3,0.85 2.99,0.17 5.99,0.3 8.99,0.39 2.79,0.09 5.58,0.15 8.37,0.01 0.35,-0.04 0.7,-0.08 1.05,-0.11 0.62,-0.06 1.24,-0.12 1.85,-0.18 1.25,0.05 2.41,0.41 3.47,1.07 1.52,0.96 2.63,2.51 3.04,4.26 0.43,1.81 0.11,3.75 -0.89,5.33 -0.38,0.45 -0.76,0.91 -1.14,1.36 -0.9,0.83 -1.94,1.39 -3.12,1.68 -2.11,0.24 -4.24,0.55 -6.36,0.56 -1.36,0.01 -2.72,0.02 -4.08,-0.01 -2.88,-0.08 -5.75,-0.16 -8.63,-0.28 -5.54,-0.24 -11.08,-0.68 -16.62,-0.92 -3.07,-0.13 -6.15,-0.23 -9.22,-0.34 -3.39,-0.12 -6.74,-0.44 -10.11,-0.68 -1.86,-0.13 -3.55,-0.83 -4.83,-2.21 -1.25,-1.34 -1.93,-3.15 -1.86,-4.98 0.13,-3.54 3.16,-6.71 6.76,-6.71 0.14,0 0.29,0.01 0.44,0.02l0 0z"/>
   <path class="fil0" d="M1041.16 825.71c10.55,0.38 21.1,0.74 31.66,1.13 6.66,0.25 13.31,0.56 19.94,1.15 1.87,0.16 3.53,0.81 4.83,2.21 1.25,1.34 1.92,3.15 1.86,4.98 -0.07,1.83 -0.86,3.59 -2.21,4.83 -1.28,1.2 -3.2,2.02 -4.98,1.86 -10.98,-0.97 -22.01,-1.22 -33.03,-1.61 -6.19,-0.22 -12.38,-0.44 -18.58,-0.66 -3.79,-0.14 -6.83,-3.41 -6.7,-7.19 0.13,-3.7 3.27,-6.7 6.95,-6.7 0.08,0 0.16,0 0.24,0.01l0 0z"/>
   <path class="fil0" d="M1034.98 903.69c2.67,0.04 5.34,0.18 8.01,0.27 2.84,0.1 5.69,0.2 8.53,0.3 5.46,0.2 10.93,0.39 16.4,0.59 3.92,0.14 7.85,0.22 11.75,0.51 2.13,0.15 4.25,0.35 6.38,0.53 1.6,0.13 3.19,0.14 4.79,0.06 0.39,-0.05 0.79,-0.11 1.18,-0.17 0.62,-0.06 1.24,-0.12 1.85,-0.18 1.25,0.05 2.41,0.41 3.47,1.07 1.52,0.96 2.63,2.51 3.04,4.26 0.43,1.81 0.11,3.76 -0.89,5.32 -0.9,1.42 -2.55,2.78 -4.26,3.04 -1.97,0.3 -3.96,0.57 -5.96,0.59 -1.4,0.02 -2.8,-0.04 -4.2,-0.16 -2.79,-0.23 -5.58,-0.47 -8.38,-0.62 -5.63,-0.31 -11.27,-0.44 -16.91,-0.64 -4.23,-0.15 -8.45,-0.3 -12.67,-0.45 -4.2,-0.15 -8.42,-0.38 -12.63,-0.44 -3.79,-0.05 -6.82,-3.47 -6.69,-7.19 0.14,-3.81 3.34,-6.69 7.09,-6.69 0.03,0 0.07,0 0.1,0l0 0z"/>
   <path class="fil0" d="M1028.25 980.38c11.02,0.39 22.04,0.78 33.06,1.17 11.07,0.4 22.14,0.79 33.22,1.19 0.66,0.02 1.33,0.05 1.99,0.07 3.79,0.14 6.83,3.41 6.7,7.19 -0.13,3.78 -3.41,6.83 -7.19,6.69 -11.09,-0.39 -22.18,-0.8 -33.27,-1.19 -11,-0.39 -21.99,-0.78 -32.99,-1.17 -0.67,-0.02 -1.34,-0.05 -2,-0.07 -3.79,-0.14 -6.83,-3.41 -6.7,-7.19 0.13,-3.7 3.27,-6.7 6.95,-6.7 0.08,0 0.16,0 0.24,0.01l0 0z"/>
   <path class="fil0" d="M223.82 558.55c0.13,0 0.28,0.01 0.41,0.04 1.34,0.24 2.22,1.51 2.01,2.88 -0.1,0.63 -0.21,1.4 -0.34,2.37 -0.01,0.16 -0.04,0.31 -0.07,0.47l-0.02 0.16c-0.05,0.4 -0.11,0.82 -0.14,1.22l-0.17 2.61c1.28,0.13 2.55,0.56 3.73,1.25 1.42,-1.63 2.9,-3.34 4.08,-4.72l0.07 -0.07 0.82 -0.95c0.47,-0.55 1.16,-0.86 1.89,-0.86 0.58,0 1.15,0.21 1.6,0.59 0.49,0.42 0.8,1.04 0.85,1.7 0.05,0.66 -0.16,1.3 -0.58,1.79 -1.9,2.2 -3.6,4.16 -5.23,5.99 0.74,1.15 1.21,2.44 1.4,3.83 0.18,-0.04 0.4,-0.04 0.62,-0.04l0.56 -0c2.79,0 5.28,0.18 7.6,0.54 0.64,0.1 1.19,0.45 1.57,0.99 0.39,0.55 0.56,1.24 0.44,1.89 -0.22,1.18 -1.26,2.03 -2.48,2.03 -0.13,0 -0.26,-0.01 -0.4,-0.03 -1.38,-0.22 -2.69,-0.36 -4.01,-0.44 -0.57,-0.02 -1.23,-0.03 -2.05,-0.03 -0.83,0 -1.66,0.01 -2.5,0.04 -0.34,0.88 -0.83,1.74 -1.47,2.54l0.44 0.48 0.15 0.18 0.16 0.18c0.34,0.39 0.68,0.77 1.02,1.16l0.91 1.03 0.9 1c0.25,0.28 0.51,0.57 0.78,0.85l0.19 0.2 0.24 0.25 0.21 0.23 0.21 0.23c0.25,0.36 0.39,0.76 0.44,1.19 0.06,0.65 -0.16,1.32 -0.58,1.83 -0.42,0.49 -1.03,0.8 -1.66,0.86 -0.07,0.01 -0.14,0.01 -0.22,0.01 -0.49,0 -1.21,-0.15 -1.62,-0.59 -1.97,-2.15 -3.74,-4.09 -5.49,-6.15 -0.84,0.38 -1.77,0.63 -2.75,0.74 0.04,1.01 0.05,2.23 0.05,3.73l-0.02 1.94 0 0.05c-0.01,1.95 -0.03,4.03 -0.01,6 0,0.79 -0.18,1.35 -0.59,1.83 -0.42,0.48 -1.02,0.8 -1.66,0.86 -0.07,0.01 -0.15,0.01 -0.22,0.01 -0.6,0 -1.17,-0.21 -1.62,-0.59 -0.42,-0.36 -0.85,-1.02 -0.86,-1.66 -0.01,-1.66 0,-3.34 0.01,-5l0 -0.44 0 -0.37 0.01 -0.33 0.01 -1.97c0.01,-1.51 0,-3.09 -0.03,-4.83 -0.46,-0.18 -0.93,-0.42 -1.41,-0.73l-0.02 0.06 -0.22 0.21 -0.27 0.27 -0.56 0.54 -0.46 0.45 -0.07 0.07c-0.29,0.29 -0.59,0.58 -0.9,0.86l-0.39 0.36 -0.19 0.18 -0.1 0.1c-0.4,0.38 -0.81,0.76 -1.22,1.1l-0.29 0.24c-0.39,0.33 -0.76,0.63 -1.14,0.93l-0.14 0.11 -0.07 0.05c-0.17,0.13 -0.33,0.25 -0.51,0.37 -0.6,0.43 -1.22,0.77 -1.77,1.05 -0.22,0.11 -0.48,0.17 -0.77,0.17 -0.39,0 -0.81,-0.1 -1.16,-0.26 -0.57,-0.28 -1.03,-0.78 -1.25,-1.38 -0.23,-0.62 -0.19,-1.32 0.09,-1.92l0.34 -0.53c0.26,-0.3 0.58,-0.53 0.95,-0.68 0.95,-0.6 1.84,-1.34 2.62,-1.99l0.13 -0.11c1.27,-1.18 2.51,-2.37 3.98,-3.79 -0.14,-0.21 -0.28,-0.48 -0.43,-0.79 -0.01,0 -0.01,0 -0.03,0 -0.57,0 -1.15,-0.03 -1.82,-0.07l-0.1 -0.01c-0.54,-0.03 -0.95,-0.06 -1.36,-0.08 -0.92,-0.05 -1.86,-0.15 -2.78,-0.25l-0.15 -0.02 -0.13 -0.01 -0.08 -0.01 -0.71 -0.08c-1.31,-0.15 -2.65,-0.34 -3.77,-0.51 -0.62,-0.09 -1.17,-0.44 -1.55,-0.97 -0.41,-0.56 -0.57,-1.25 -0.46,-1.9 0.22,-1.18 1.27,-2.03 2.49,-2.03 0.13,0 0.25,0.01 0.38,0.03 1.84,0.28 3.5,0.51 5.17,0.66l0.8 0.08c0.7,0.08 1.25,0.12 1.75,0.15l1.54 0.08c0.13,-1.66 0.72,-3.29 1.73,-4.73l-0.3 -0.35c-1.2,-1.52 -2.49,-3.13 -3.79,-4.74 -0.19,-0.24 -0.39,-0.46 -0.58,-0.68 -0.54,-0.56 -1.03,-1.03 -1.51,-1.46 -1.03,-0.92 -1.15,-2.46 -0.27,-3.49 0.46,-0.54 1.18,-0.86 1.91,-0.86 0.59,0 1.15,0.21 1.58,0.59 1.87,1.68 3.45,3.68 4.97,5.61l0.57 0.72 1.16 1.47c0.17,-0.11 0.4,-0.22 0.68,-0.33 -0.01,-0.23 0,-0.48 0.02,-0.73l0.07 -1.11 0.07 -1.12c0.01,-0.13 0.01,-0.26 0.02,-0.39 0.01,-0.27 0.03,-0.54 0.06,-0.81l0.09 -0.69 0.03 -0.24 0.02 -0.15 0.02 -0.14c0.1,-0.82 0.25,-1.95 0.4,-2.97 0.19,-1.16 1.25,-2.04 2.46,-2.04l0 0z"/>
   <path class="fil0" d="M404.88 821.03c0.13,0 0.27,0.01 0.41,0.03 0.64,0.12 1.22,0.49 1.59,1.02 0.37,0.51 0.5,1.12 0.4,1.84 -0.25,1.98 -0.51,3.71 -0.8,5.28 1.17,0.51 2.23,1.28 3.15,2.24 0.8,-0.63 1.67,-1.28 2.59,-1.95 0.88,-0.64 1.76,-1.25 2.64,-1.87l0.19 -0.13 0.29 -0.2c0.41,-0.28 0.9,-0.44 1.4,-0.44 0.82,0 1.58,0.4 2.04,1.05 0.37,0.53 0.51,1.19 0.39,1.83 -0.12,0.66 -0.48,1.23 -1.02,1.6 -2.25,1.57 -4.26,3.02 -6.13,4.42 0.22,0.78 0.33,1.6 0.33,2.45 0,0.19 0,0.38 -0.01,0.55 0.53,0.05 1.08,0.12 1.68,0.21 1.03,0.16 1.87,0.31 2.63,0.49 0.9,0.21 1.82,0.49 2.56,0.71l0.07 0.02c0.21,0.07 0.42,0.13 0.63,0.2 0.39,0.19 0.72,0.46 0.96,0.81 0.37,0.54 0.52,1.2 0.41,1.84 -0.12,0.64 -0.49,1.22 -1.02,1.59 -0.32,0.22 -0.86,0.46 -1.41,0.46 -0.15,0 -0.3,-0.02 -0.43,-0.06 -1.75,-0.54 -3.34,-0.91 -4.82,-1.15 -0.72,-0.11 -1.43,-0.21 -2.14,-0.3l-0.34 -0.05 -0.34 -0.04c-0.48,0.77 -1.09,1.49 -1.8,2.12 0.34,0.56 0.68,1.16 1.02,1.75l0.04 0.07 0.05 0.07 0.14 0.24c0.54,0.96 1.1,1.94 1.68,2.9 0.72,1.19 1.42,2.25 2.16,3.27 0.37,0.51 0.51,1.16 0.4,1.81 -0.11,0.66 -0.48,1.26 -1.02,1.63 -0.41,0.28 -0.88,0.44 -1.38,0.44 -0.8,0 -1.57,-0.4 -2.04,-1.05 -0.94,-1.3 -1.78,-2.65 -2.47,-3.8 -0.36,-0.6 -0.72,-1.22 -1.06,-1.84 -0.22,-0.38 -0.44,-0.76 -0.66,-1.14 -0.41,-0.7 -0.81,-1.39 -1.22,-2.08 -0.69,0.17 -1.42,0.26 -2.17,0.26 -0.13,0 -0.25,-0.01 -0.38,-0.01 -0.23,1.22 -0.48,2.46 -0.75,3.7l-0.15 0.75 -0.52 2.52c-0.08,0.4 -0.16,0.79 -0.25,1.19l-0.13 0.59c-0.26,1.2 -1.25,2.04 -2.43,2.04 -0.13,0 -0.28,-0.01 -0.43,-0.04 -0.66,-0.12 -1.25,-0.51 -1.63,-1.08 -0.37,-0.54 -0.5,-1.18 -0.37,-1.78 0.51,-2.41 1.04,-4.99 1.42,-6.87l0.28 -1.43c-0.36,0.31 -0.76,0.58 -1.06,0.78 -0.74,0.49 -1.49,0.98 -2.23,1.46l-0.95 0.61 -0.06 0.04c-0.91,0.6 -1.93,1.27 -2.86,1.95 -0.39,0.29 -0.86,0.44 -1.37,0.44 -0.82,0 -1.6,-0.4 -2.06,-1.06 -0.77,-1.1 -0.5,-2.6 0.61,-3.42 1.42,-1.04 2.91,-2 4.34,-2.93 0.79,-0.51 1.55,-0.99 2.29,-1.49 0.16,-0.12 0.33,-0.23 0.49,-0.35 -0.74,-1.04 -1.26,-2.22 -1.53,-3.5l-0.06 0 -0.15 -0.02 -1.16 -0.21 -2.51 -0.45c-0.25,-0.05 -0.51,-0.09 -0.76,-0.13l-0.2 -0.04c-0.8,-0.13 -1.79,-0.29 -2.72,-0.54 -0.74,-0.19 -1.23,-0.51 -1.58,-1.02 -0.38,-0.53 -0.53,-1.2 -0.41,-1.84 0.12,-0.63 0.48,-1.22 1.01,-1.59 0.42,-0.28 0.94,-0.46 1.41,-0.46 0.14,0 0.28,0.02 0.44,0.05 0.84,0.22 1.68,0.37 2.62,0.52l0.11 0.02c0.28,0.04 0.56,0.09 0.83,0.14l3.37 0.6c0.37,-1.22 0.99,-2.37 1.84,-3.39l-0.13 -0.16c-0.34,-0.51 -0.98,-1.46 -1.51,-2.36 -0.63,-1.05 -1.16,-1.94 -1.74,-2.82 -0.76,-1.16 -0.49,-2.66 0.62,-3.42 0.41,-0.29 0.9,-0.44 1.41,-0.44 0.83,0 1.59,0.39 2.01,1.05 0.68,1.04 1.33,2.13 1.9,3.08l0.04 0.08c0.46,0.77 0.93,1.47 1.35,2.09 0.9,-0.36 1.87,-0.59 2.88,-0.68l0.17 -1.1 0.15 -0.93 0.14 -0.86c0.1,-0.61 0.19,-1.25 0.26,-1.86l0.01 -0.05 0.01 -0.06 0.01 -0.05 0.04 -0.34c0.15,-1.14 1.23,-2.03 2.46,-2.03l0 0z"/>
   <path class="fil0" d="M901.08 403.07c0.32,0 0.64,0.07 0.94,0.19 0.59,0.24 1.07,0.71 1.32,1.3 0.25,0.58 0.26,1.15 0.01,1.91 -0.58,1.87 -1.14,3.88 -1.59,5.49l-0.05 0.2 -0.44 1.57c0.93,0.41 1.8,0.97 2.58,1.68l0.53 -0.27 1.04 -0.53c0.99,-0.51 2.01,-1.06 3.3,-1.78 0.67,-0.4 1.34,-0.8 2,-1.21l0.27 -0.16 0.27 -0.16c0.31,-0.14 0.64,-0.21 0.97,-0.21 0.1,0 0.2,0.01 0.3,0.02 0.65,0.08 1.24,0.42 1.65,0.93 0.4,0.51 0.58,1.18 0.5,1.82 -0.07,0.56 -0.39,1.31 -0.93,1.65l-0.2 0.13c-1.02,0.62 -2.16,1.33 -3.27,1.95 -0.98,0.55 -2.01,1.11 -3.26,1.74l-0.43 0.22c0.38,1.02 0.57,2.11 0.57,3.22 0,0.19 -0.01,0.38 -0.02,0.56 0.56,0.17 1.13,0.35 1.7,0.54l0.64 0.21c0.78,0.19 1.54,0.37 2.32,0.51 0.74,0.15 1.26,0.44 1.64,0.93 0.4,0.52 0.58,1.18 0.51,1.82 -0.15,1.19 -1.23,2.18 -2.37,2.18 -0.13,0 -0.25,-0.01 -0.38,-0.04 -1.55,-0.3 -2.92,-0.64 -4.17,-1.04 -0.48,-0.15 -0.95,-0.3 -1.42,-0.46 -0.36,0.61 -0.83,1.2 -1.37,1.75l0.63 1.11 0.93 1.68c0.67,1.11 1.41,2.32 2.4,3.91 0.37,0.58 0.59,1.11 0.51,1.81 -0.08,0.65 -0.42,1.25 -0.93,1.65 -0.43,0.34 -0.97,0.52 -1.52,0.52 -0.1,0 -0.2,-0.01 -0.3,-0.02 -0.55,-0.07 -1.3,-0.39 -1.64,-0.93l-0.06 -0.09c-1.05,-1.68 -2.36,-3.76 -3.49,-5.82l-0.71 -1.3c-0.9,0.29 -1.85,0.44 -2.82,0.44 -0.42,0 -0.86,-0.03 -1.29,-0.09 -0.09,0.36 -0.2,0.73 -0.32,1.09l-0.21 0.67 -0.04 0.12c-0.25,0.82 -0.6,1.94 -0.9,3.01 -0.1,0.37 -0.21,0.74 -0.31,1.11l-0.15 0.56 -0.16 0.6c-0.07,0.27 -0.13,0.53 -0.2,0.8l-0.08 0.31 -0.08 0.32c-0.17,0.4 -0.42,0.74 -0.76,1 -0.43,0.34 -0.97,0.53 -1.52,0.53 -0.1,0 -0.2,-0.01 -0.3,-0.02 -0.64,-0.08 -1.24,-0.42 -1.64,-0.93 -0.35,-0.44 -0.65,-1.2 -0.5,-1.82 0.58,-2.47 1.29,-4.88 2.17,-7.72 0.15,-0.5 0.31,-1 0.46,-1.5 -0.66,-0.46 -1.26,-1.03 -1.81,-1.7 -1.06,0.6 -2.16,1.23 -3.28,1.88 -1.37,0.85 -2.73,1.7 -4.09,2.56 -0.4,0.26 -0.9,0.52 -1.52,0.52 -0.09,0 -0.19,-0 -0.29,-0.01 -0.65,-0.08 -1.25,-0.42 -1.64,-0.93 -0.4,-0.51 -0.59,-1.17 -0.51,-1.82 0.07,-0.57 0.39,-1.31 0.93,-1.64l0.05 -0.04c2.71,-1.71 5.48,-3.45 8.27,-4.96 -0.13,-0.58 -0.19,-1.2 -0.19,-1.83 -1.98,-0.53 -3.43,-0.97 -4.69,-1.42 -1.54,-0.53 -3.13,-1.09 -4.64,-1.87 -0.68,-0.36 -1.08,-0.74 -1.32,-1.3 -0.26,-0.61 -0.27,-1.31 -0.02,-1.92 0.24,-0.59 0.71,-1.07 1.3,-1.32 0.31,-0.14 0.68,-0.22 1.03,-0.22 0.33,0 0.64,0.07 0.88,0.2 1.94,1 3.94,1.66 6.18,2.35 0.81,0.25 1.63,0.5 2.53,0.74 0.52,-0.97 1.22,-1.86 2.08,-2.63l-0.15 -0.22 -0.41 -0.64 -0.55 -0.87 -0.09 -0.14 -0.05 -0.08c-0.64,-1 -1.42,-2.24 -2.22,-3.36 -0.81,-1.12 -0.63,-2.64 0.42,-3.45 0.42,-0.33 0.97,-0.52 1.54,-0.52 0.78,0 1.5,0.35 1.92,0.94 0.56,0.78 1.08,1.6 1.55,2.32l0.33 0.53c0.53,0.81 1.15,1.78 1.76,2.78l0.28 0.45c0.44,-0.12 0.93,-0.2 1.44,-0.25l0.26 -0.94 0.81 -2.85c0.32,-1.13 0.8,-2.82 1.31,-4.46 0.19,-0.61 0.79,-1.1 1.3,-1.32 0.3,-0.13 0.64,-0.21 0.98,-0.21l0 0z"/>
   <path class="fil0" d="M542.76 395.72l0 0c0.66,0 1.34,0.3 1.83,0.82 0.44,0.46 0.67,1.05 0.63,1.64 -0.08,1.44 -0.11,3 -0.13,4.14l-0.02 0.93c-0.01,0.31 0.01,0.64 0.02,0.93l-0 0.07c0.01,0.13 0.02,0.27 0.02,0.4l0.05 1.36 0.05 1.33c0.21,0.03 0.42,0.1 0.59,0.15 1.37,-1.37 2.67,-2.81 3.88,-4.29 0.69,-0.92 1.33,-1.86 1.89,-2.79 0.44,-0.75 1.26,-1.2 2.14,-1.2 0.44,0 0.87,0.12 1.24,0.34 0.56,0.33 0.96,0.87 1.12,1.52 0.16,0.64 0.07,1.3 -0.26,1.86 -1.48,2.48 -3.36,4.65 -4.99,6.44l-0.28 0.31 -0.07 0.08 -0.07 0.08c-0.1,0.11 -0.2,0.22 -0.3,0.33 0.67,0.67 1.24,1.45 1.69,2.32 1.4,-0.3 2.84,-0.64 4.54,-1.07 0.22,-0.06 0.42,-0.08 0.62,-0.08 1.13,0 2.11,0.75 2.4,1.82 0.17,0.62 0.07,1.31 -0.27,1.89 -0.33,0.57 -0.86,0.97 -1.48,1.13 -1.34,0.35 -2.75,0.69 -4.3,1.03 -0.14,0.03 -0.28,0.06 -0.42,0.08 -0.02,1.42 -0.38,2.8 -1.04,4.11 1.21,1.02 2.43,2.01 3.57,2.94l0.24 0.18 0.25 0.19 0.16 0.12 0.04 0.03c0.46,0.35 0.92,0.7 1.39,1.03 0.62,0.45 0.96,0.9 1.11,1.48 0.17,0.64 0.08,1.33 -0.26,1.9 -0.33,0.55 -0.86,0.96 -1.48,1.12 -0.2,0.06 -0.43,0.09 -0.67,0.09 -0.48,0 -0.92,-0.13 -1.23,-0.35 -1.98,-1.42 -4.05,-3.07 -6.34,-5.03 -0.9,0.66 -1.92,1.16 -3.03,1.46 -0.01,1.15 -0.04,2.44 -0.1,4.31 -0.03,0.91 -0.07,1.81 -0.11,2.72l-0.05 1.25c-0.06,1.39 -1.14,2.47 -2.46,2.47 -0.66,0 -1.32,-0.29 -1.8,-0.79 -0.45,-0.47 -0.69,-1.07 -0.67,-1.67 0.12,-2.99 0.21,-5.67 0.26,-8.22 -1.68,-0.39 -3.25,-1.25 -4.54,-2.49l-2.72 3.33 -1.46 1.77 -0.11 0.13 -0.1 0.13c-0.4,0.48 -1.17,0.7 -1.72,0.7 -0.66,0 -1.31,-0.28 -1.77,-0.75 -0.45,-0.46 -0.7,-1.09 -0.7,-1.72l0.04 -0.33 0.05 -0.33c0.12,-0.42 0.34,-0.8 0.65,-1.11l1.37 -1.66c1.08,-1.31 2.15,-2.61 3.23,-3.91 -2.57,0.47 -4.83,0.76 -6.92,0.9l-0.13 0.01 -0.12 0.01 -0.12 0.01c-0.04,0 -0.08,0 -0.12,0 -1.23,0 -2.35,-1.17 -2.35,-2.46 0,-0.67 0.27,-1.31 0.74,-1.77 0.44,-0.44 1.01,-0.66 1.72,-0.7 0.8,-0.04 1.7,-0.13 2.83,-0.26 1.67,-0.24 3.18,-0.46 4.76,-0.73 0.16,-1.04 0.51,-2.07 1.04,-3.04l-0.19 -0.16 -0.05 -0.05c-1.01,-0.86 -2.26,-1.93 -3.5,-2.93l-0.05 -0.05c-0.23,-0.17 -0.46,-0.35 -0.7,-0.52 -0.62,-0.44 -0.97,-0.9 -1.12,-1.48 -0.18,-0.64 -0.08,-1.33 0.26,-1.9 0.33,-0.54 0.86,-0.96 1.48,-1.12 0.21,-0.06 0.44,-0.09 0.66,-0.09 0.48,0 0.92,0.13 1.23,0.35 1.62,1.15 3.15,2.48 4.63,3.76l0.08 0.07 0.57 0.49c0.83,-0.57 1.77,-1.01 2.77,-1.3l-0.01 -0.05c-0.03,-0.63 -0.05,-1.25 -0.07,-1.86l-0.02 -0.64c-0.01,-0.18 -0.01,-0.36 -0.02,-0.54l-0.01 -0.12c-0.02,-0.34 -0.03,-0.67 -0.02,-0.97l0.02 -0.85c0.03,-1.45 0.06,-2.87 0.13,-4.21 0.04,-0.75 0.29,-1.33 0.74,-1.77 0.47,-0.45 1.09,-0.7 1.72,-0.7l0 0z"/>
   <path class="fil0" d="M1308.61 765.54c0.51,0 1.01,0.16 1.42,0.45 0.46,0.32 0.94,0.93 1.01,1.57 0.27,2.79 0.58,5.56 0.91,8.23 0.13,-0.03 0.3,-0.04 0.53,-0.04 1.25,0 2.47,0.24 3.64,0.71 0.94,-1.01 1.93,-2.03 2.77,-2.89 0.34,-0.35 0.72,-0.68 1.06,-0.97l0.05 -0.04c0.19,-0.16 0.38,-0.33 0.56,-0.5 0.81,-0.73 1.55,-1.38 2.28,-1.99 0.44,-0.37 1.01,-0.58 1.59,-0.58 0.73,0 1.42,0.32 1.89,0.87 0.42,0.5 0.62,1.14 0.56,1.81 -0.06,0.66 -0.36,1.25 -0.86,1.66 -1.07,0.9 -2.11,1.84 -3.12,2.75l-0.06 0.05 -0.13 0.12 -0.56 0.51c-0.22,0.2 -0.44,0.42 -0.67,0.67l-0.1 0.11 -0.08 0.08 -0.15 0.16 -0.95 0.98 -0.11 0.11c0.71,0.81 1.27,1.76 1.68,2.8 0.66,-0.03 1.34,-0.04 2.02,-0.05 0.26,-0.01 0.52,-0.01 0.79,-0.01 0.39,0 0.78,0.01 1.17,0.01l0.29 0 0.28 0 0.65 0.01c0.58,0.01 1.14,0.27 1.57,0.75 0.48,0.53 0.73,1.25 0.68,1.92 -0.06,0.65 -0.37,1.26 -0.86,1.68 -0.47,0.39 -1.02,0.57 -1.73,0.57l-0.07 0c-0.59,-0.01 -1.17,-0.01 -1.75,-0.01 -0.83,0 -1.66,0.01 -2.5,0.02 -0.16,1.23 -0.57,2.42 -1.23,3.54 0.56,0.44 1.11,0.91 1.67,1.37 1.01,0.85 2.03,1.7 3.04,2.55 0.58,0.49 0.89,0.97 1,1.57 0.12,0.65 -0.03,1.33 -0.41,1.87 -0.37,0.52 -0.94,0.89 -1.57,1.01 -0.14,0.02 -0.3,0.04 -0.46,0.04 -0.55,0 -1.06,-0.16 -1.41,-0.45l-0.7 -0.58 -1.21 -1.01 -3.41 -2.85c-0.92,0.58 -1.94,1 -3.02,1.24 0.11,0.58 0.22,1.19 0.32,1.79 0.19,1.11 0.38,2.23 0.54,3.34 0.07,0.48 0.15,0.96 0.22,1.44 0.12,0.74 0.24,1.49 0.34,2.23 0.19,1.39 -0.65,2.63 -1.97,2.87 -0.15,0.02 -0.29,0.04 -0.43,0.04 -1.21,0 -2.29,-0.88 -2.45,-2.01 -0.3,-2.07 -0.62,-4.08 -1.05,-6.71 -0.18,-1.07 -0.35,-2.15 -0.52,-3.22 -1.25,-0.38 -2.41,-1 -3.44,-1.87l-0.2 0.21c-1.16,1.08 -2.32,2.15 -3.47,3.24l-0.5 0.47 -0.1 0.09 -0.08 0.07 -0.08 0.07c-0.73,0.7 -1.49,1.42 -2.25,2.11 -0.41,0.37 -0.96,0.58 -1.55,0.58 -0.74,0 -1.46,-0.32 -1.93,-0.87 -0.86,-1.02 -0.73,-2.55 0.29,-3.48 1.07,-0.97 2.13,-1.98 3.16,-2.95l0.15 -0.13c0.8,-0.77 1.61,-1.53 2.43,-2.29l1.22 -1.13c-0.09,-0.19 -0.17,-0.41 -0.25,-0.67l-0.48 0.07c-1.07,0.14 -2.4,0.31 -3.65,0.51l-1.77 0.27 -0.19 0.03 -0.22 0.03 -0.31 0.05c-1.38,0.21 -2.81,0.44 -4.22,0.62 -0.15,0.02 -0.3,0.03 -0.44,0.03 -0.53,0 -1.02,-0.15 -1.43,-0.44 -0.52,-0.36 -0.89,-0.94 -1.01,-1.57 -0.12,-0.64 0.05,-1.36 0.46,-1.93 0.38,-0.53 0.92,-0.86 1.51,-0.95 1.11,-0.15 2.23,-0.32 3.32,-0.49l0.42 -0.07 0.32 -0.05 0.08 -0.01c1.1,-0.17 2.35,-0.37 3.56,-0.53l0.25 -0.03 1.34 -0.18 2.21 -0.29c0.08,-0.48 0.23,-0.99 0.44,-1.52l-1.22 -1.02c-1.38,-1.19 -2.77,-2.39 -4.16,-3.57l-0.56 -0.48c-0.51,-0.44 -1.02,-0.88 -1.55,-1.29 -0.57,-0.46 -0.89,-0.96 -1,-1.57 -0.12,-0.65 0.03,-1.33 0.41,-1.87 0.45,-0.64 1.27,-1.06 2.09,-1.06 0.51,0 0.97,0.16 1.35,0.46 0.67,0.54 1.33,1.1 2.06,1.73l0.05 0.04c0.33,0.28 0.66,0.56 0.99,0.84 0.53,0.45 1.06,0.9 1.58,1.36 0.41,0.36 0.83,0.71 1.24,1.06l1.35 1.16 0.23 0.2c0.31,-0.29 0.68,-0.57 1.11,-0.85 -0.17,-1.19 -0.31,-2.27 -0.43,-3.41l-0.1 -0.98 -0.02 -0.18c-0.15,-1.44 -0.3,-2.87 -0.44,-4.31 -0.08,-0.78 0.05,-1.36 0.41,-1.86 0.37,-0.53 0.94,-0.89 1.56,-1.01 0.16,-0.03 0.31,-0.04 0.45,-0.04l0 0z"/>
   <path class="fil0" d="M857.97 234.15c0.03,0.11 0.06,0.22 0.1,0.33 0.23,0.47 0.5,0.9 0.8,1.31 1.2,1.47 2.67,2.62 4.16,3.77 1.81,1.31 3.63,2.59 5.49,3.83 0.33,0.22 0.66,0.45 0.99,0.67 0.07,-0.79 0.14,-1.58 0.21,-2.36 0.19,-2.28 0.38,-4.55 0.64,-6.83 0.27,-2.39 0.54,-4.77 0.79,-7.16 0.07,-0.59 0.14,-1.19 0.23,-1.78 -2.33,0.46 -4.66,0.96 -6.87,1.83 -1.25,0.56 -2.43,1.21 -3.54,2.02 -0.62,0.5 -1.19,1.03 -1.7,1.65 -0.38,0.52 -0.71,1.08 -0.99,1.66 -0.11,0.31 -0.22,0.63 -0.3,0.95 0,0.03 0,0.07 0,0.1zm17.89 24.43c1.71,-0.74 3.4,-1.61 4.97,-2.63 -0.28,-0.14 -0.56,-0.29 -0.84,-0.45 -0.91,-0.48 -1.85,-0.95 -2.75,-1.46 -0.57,-0.33 -1.14,-0.65 -1.71,-0.97 -0.48,-0.28 -0.94,-0.6 -1.41,-0.9 -0.38,-0.24 -0.75,-0.48 -1.12,-0.73 -0.06,0.93 -0.11,1.87 -0.17,2.79 -0.07,1.13 -0.17,2.24 -0.25,3.37 -0.04,0.48 -0.08,0.96 -0.11,1.44 -0.02,0.2 -0.04,0.41 -0.06,0.62 1.19,-0.22 2.33,-0.63 3.45,-1.08zm8.73 -5.32c0.77,-0.62 1.54,-1.25 2.31,-1.86 0.35,-0.28 0.67,-0.59 1.01,-0.89 0.55,-0.48 1.1,-0.97 1.65,-1.45 0.88,-0.77 1.72,-1.58 2.58,-2.38 0.8,-0.75 1.62,-1.49 2.43,-2.23 0.86,-0.79 1.73,-1.58 2.6,-2.37 -0.75,-1.48 -1.51,-2.97 -2.27,-4.45 -2.12,-4.11 -4.23,-8.24 -6.31,-12.38 -1.14,-0.01 -2.29,-0.01 -3.44,-0.02 -2.25,-0.02 -4.49,-0.02 -6.74,0.01 -0.94,0.02 -1.88,0.09 -2.82,0.16 -0.1,0.71 -0.2,1.41 -0.3,2.11 -0.47,4.43 -1.01,8.84 -1.37,13.28 -0.17,1.98 -0.35,3.97 -0.54,5.95 0.18,0.12 0.36,0.24 0.53,0.36 1.85,1.24 3.7,2.48 5.67,3.53 1.67,0.88 3.33,1.78 5.01,2.63zm4.52 1.82c0.87,0.27 1.79,0.46 2.69,0.62 1.74,0.29 3.48,0.54 5.23,0.78 1.34,0.18 2.68,0.31 4.02,0.42 0.66,0.05 1.33,0.1 1.99,0.15 0.02,0 0.04,0.01 0.06,0.01 -0.08,-0.28 -0.16,-0.55 -0.26,-0.83 -0.32,-0.79 -0.66,-1.57 -0.98,-2.35 -0.33,-0.84 -0.64,-1.67 -0.95,-2.52 -0.24,-0.6 -0.47,-1.22 -0.74,-1.81 -0.29,-0.66 -0.61,-1.31 -0.91,-1.98 -0.2,-0.43 -0.4,-0.87 -0.6,-1.3 -1.1,1 -2.2,2 -3.29,3.01 -0.92,0.85 -1.84,1.71 -2.77,2.56 -0.85,0.79 -1.74,1.55 -2.61,2.31 -0.34,0.31 -0.69,0.6 -1.05,0.88 0.06,0.02 0.11,0.03 0.17,0.05zm15.07 -19.67c1.13,-1.14 2.22,-2.3 3.22,-3.55 0.84,-1.14 1.54,-2.37 2.17,-3.63 -0.08,-0.04 -0.17,-0.08 -0.25,-0.12 -2.26,-0.86 -4.65,-1.28 -7.01,-1.73 -1.14,-0.22 -2.3,-0.35 -3.45,-0.51 -1.19,-0.12 -2.39,-0.24 -3.58,-0.36 -0.34,-0.04 -0.69,-0.04 -1.03,-0.06 -0.33,-0.01 -0.66,-0.03 -0.99,-0.04 0.03,0.06 0.06,0.13 0.1,0.19 2.04,4.02 4.11,8.01 6.15,12.02 0.26,0.52 0.53,1.04 0.8,1.57 1.31,-1.23 2.61,-2.49 3.88,-3.77zm-18.15 -15.17c-0.31,-0.6 -0.62,-1.2 -0.96,-1.78 -0.68,-1.19 -1.35,-2.39 -2.16,-3.5 -0.36,-0.43 -0.73,-0.84 -1.15,-1.21 -0.24,-0.15 -0.47,-0.28 -0.72,-0.41 -0.11,-0.03 -0.22,-0.06 -0.33,-0.08 -0.05,0 -0.09,0 -0.14,0 -0.12,0.02 -0.24,0.06 -0.36,0.1 -0.13,0.07 -0.25,0.14 -0.37,0.22 -0.25,0.23 -0.49,0.48 -0.72,0.75 -0.6,0.84 -1.08,1.75 -1.5,2.7 -0.5,1.27 -0.87,2.56 -1.2,3.89 -0.02,0.1 -0.05,0.22 -0.08,0.32 0.46,-0.03 0.92,-0.07 1.38,-0.1 0.32,-0.02 0.64,-0.02 0.96,-0.02 0.15,0 0.31,0 0.46,0 0.6,-0.01 1.2,-0.02 1.8,-0.03 1.84,-0.02 3.69,0 5.54,0.02 -0.15,-0.29 -0.3,-0.58 -0.45,-0.87zm-5.12 -6.97c0,0 0.01,0 0.01,0.01 0.06,0 0.12,0.01 0.18,0.02 -0.06,-0.01 -0.13,-0.02 -0.19,-0.03zm-0.01 0c-0.02,-0.01 -0.04,-0.01 -0.06,-0.01 0.02,0 0.04,0.01 0.07,0.01 -0,0 -0.01,0 -0.01,0zm-26.34 18.1c1.12,-2.65 3.32,-4.62 5.75,-6.08 1.32,-0.79 2.78,-1.4 4.23,-1.91 0.88,-0.3 1.79,-0.53 2.7,-0.74 1.19,-0.29 2.38,-0.53 3.58,-0.77 0.4,-0.07 0.81,-0.14 1.22,-0.2 0.31,-1.57 0.7,-3.12 1.2,-4.63 0.45,-1.37 1.05,-2.69 1.77,-3.93 0.79,-1.37 1.89,-2.71 3.33,-3.41 0.75,-0.37 1.54,-0.53 2.38,-0.54 0.13,0.01 0.25,0.02 0.37,0.04 0.31,0.03 0.61,0.07 0.91,0.15 0.38,0.08 0.74,0.28 1.1,0.44 0.66,0.28 1.24,0.77 1.78,1.24 0.62,0.55 1.12,1.26 1.62,1.92 1,1.32 1.77,2.82 2.58,4.26 0.58,1.02 1.08,2.09 1.61,3.13 0.15,0.3 0.3,0.6 0.45,0.9 1.23,0.04 2.47,0.1 3.7,0.16 1.12,0.05 2.24,0.21 3.36,0.32 1.2,0.12 2.38,0.31 3.57,0.48 1.08,0.16 2.15,0.35 3.23,0.56 2.21,0.43 4.39,0.93 6.45,1.86 0.6,0.27 1.11,0.6 1.6,1.04 0.25,0.22 0.45,0.54 0.61,0.83 0.18,0.31 0.38,0.9 0.35,1.27 -0.03,0.35 -0.06,0.69 -0.16,1.02 -0.1,0.33 -0.26,0.65 -0.41,0.96 -0.13,0.25 -0.25,0.51 -0.38,0.77 -0.27,0.51 -0.54,1.02 -0.83,1.53 -0.62,1.1 -1.38,2.1 -2.17,3.09 -1.46,1.8 -3.14,3.44 -4.8,5.05 -1,0.97 -2.01,1.93 -3.03,2.87 0.16,0.31 0.31,0.64 0.46,0.96 0.18,0.36 0.35,0.73 0.53,1.09 0.01,0.02 0.01,0.03 0.02,0.05 0.4,0.82 0.8,1.65 1.15,2.5 0.16,0.39 0.32,0.78 0.49,1.16 0.11,0.25 0.22,0.51 0.32,0.77 0.22,0.53 0.44,1.07 0.67,1.6 0.09,0.21 0.17,0.42 0.24,0.64 0.05,0.13 0.11,0.26 0.17,0.39 0.21,0.46 0.41,0.93 0.61,1.4 0.18,0.41 0.36,0.82 0.52,1.24 0.34,0.9 0.66,1.82 0.8,2.78 0.07,0.48 0.08,0.97 0.03,1.46 -0.06,0.78 -0.42,1.52 -1.03,2.02 -0.67,0.54 -1.52,0.56 -2.34,0.53 -0.45,-0.01 -0.9,-0.04 -1.35,-0.06 -0.71,-0.03 -1.42,-0.04 -2.11,-0.14 -0.75,-0.11 -1.5,-0.26 -2.25,-0.4 -0.27,-0.05 -0.53,-0.1 -0.8,-0.14 -0,0 -0.01,0 -0.01,0 0.06,0.01 0.11,0.01 0.17,0.03 -0.16,-0.03 -0.34,-0.05 -0.51,-0.09 -0.11,-0.02 -0.21,-0.04 -0.32,-0.05 -0.24,-0.04 -0.47,-0.07 -0.71,-0.11 -0.32,-0.05 -0.64,-0.1 -0.96,-0.16 -0.03,0 -0.06,-0.01 -0.1,-0.01 -2.22,-0.31 -4.46,-0.59 -6.66,-1.08 -1.44,-0.32 -2.85,-0.8 -4.22,-1.38 -0.24,0.17 -0.47,0.33 -0.71,0.51 -2,1.45 -4.17,2.65 -6.43,3.64 -1.36,0.6 -2.74,1.12 -4.19,1.44 -1.7,0.38 -3.9,0.46 -5,-1.17 -0.4,-0.6 -0.55,-1.27 -0.48,-1.98 0.02,-0.22 0.04,-0.44 0.05,-0.66 0.05,-0.6 0.09,-1.2 0.14,-1.8 0.08,-1.13 0.18,-2.26 0.26,-3.38 0.14,-1.96 0.21,-3.92 0.38,-5.87 -0.12,-0.09 -0.24,-0.17 -0.37,-0.26 -1,-0.69 -2.01,-1.37 -3.02,-2.05 -1.83,-1.22 -3.65,-2.48 -5.39,-3.83 -1.47,-1.14 -2.92,-2.26 -4.16,-3.67 -0.99,-1.13 -1.84,-2.43 -2.18,-3.91 -0.29,-1.28 0.11,-2.5 0.6,-3.66z"/>
   <path class="fil0" d="M166.52 32.18c0.02,0.03 0.02,0.06 0.04,0.09 0.07,0.09 0.14,0.18 0.22,0.27 0.39,0.34 0.81,0.63 1.25,0.9 1.68,0.88 3.49,1.36 5.31,1.84 2.18,0.5 4.35,0.97 6.54,1.38 0.4,0.07 0.79,0.15 1.18,0.23 -0.24,-0.75 -0.48,-1.5 -0.73,-2.25 -0.71,-2.17 -1.43,-4.34 -2.07,-6.54 -0.68,-2.3 -1.37,-4.6 -2.06,-6.9 -0.18,-0.57 -0.33,-1.15 -0.48,-1.73 -1.97,1.34 -3.92,2.7 -5.61,4.37 -0.93,1 -1.77,2.06 -2.48,3.23 -0.37,0.7 -0.68,1.42 -0.93,2.18 -0.14,0.63 -0.23,1.26 -0.26,1.91 0.01,0.33 0.04,0.67 0.1,0.99zm17.31 -0.02c0.62,1.89 1.22,3.79 1.83,5.69 0.21,0.04 0.42,0.08 0.63,0.13 2.19,0.42 4.38,0.83 6.61,1.03 1.87,0.16 3.75,0.34 5.64,0.47 0.47,-0.87 0.93,-1.74 1.4,-2.62 0.21,-0.39 0.39,-0.81 0.58,-1.21 0.31,-0.66 0.64,-1.32 0.95,-1.98 0.51,-1.05 0.97,-2.14 1.45,-3.2 0.45,-1 0.91,-1.99 1.37,-2.99 0.48,-1.07 0.98,-2.14 1.46,-3.2 -1.27,-1.07 -2.54,-2.15 -3.82,-3.21 -3.56,-2.97 -7.11,-5.94 -10.64,-8.93 -1.06,0.43 -2.12,0.88 -3.17,1.32 -2.08,0.86 -4.14,1.74 -6.2,2.65 -0.86,0.38 -1.69,0.82 -2.54,1.25 0.19,0.69 0.37,1.38 0.55,2.06 1.29,4.26 2.52,8.53 3.92,12.76zm4.26 12.8c0.37,1.06 0.72,2.13 1.08,3.2 0.16,0.45 0.3,0.91 0.46,1.37 0.07,0.19 0.12,0.39 0.19,0.59 1.01,-0.67 1.9,-1.49 2.75,-2.34 1.28,-1.35 2.5,-2.81 3.55,-4.36 -0.32,-0.03 -0.64,-0.05 -0.95,-0.08 -1.04,-0.09 -2.07,-0.16 -3.1,-0.28 -0.65,-0.08 -1.3,-0.15 -1.95,-0.23 -0.55,-0.07 -1.1,-0.18 -1.64,-0.27 -0.44,-0.07 -0.88,-0.15 -1.31,-0.23 0.31,0.88 0.62,1.75 0.93,2.64zm15.31 -5.57c0.91,-0.09 1.83,-0.27 2.72,-0.48 1.72,-0.4 3.42,-0.85 5.12,-1.31 1.31,-0.36 2.59,-0.75 3.87,-1.19 0.64,-0.21 1.26,-0.42 1.9,-0.64 0.01,-0.01 0.04,-0.01 0.05,-0.02 -0.18,-0.22 -0.37,-0.44 -0.56,-0.66 -0.6,-0.6 -1.22,-1.19 -1.82,-1.79 -0.63,-0.63 -1.25,-1.28 -1.85,-1.94 -0.46,-0.47 -0.92,-0.94 -1.4,-1.39 -0.53,-0.5 -1.07,-0.98 -1.6,-1.46 -0.35,-0.32 -0.71,-0.64 -1.06,-0.96 -0.63,1.35 -1.25,2.7 -1.86,4.05 -0.51,1.15 -1.03,2.29 -1.55,3.44 -0.48,1.06 -1.01,2.1 -1.51,3.15 -0.19,0.41 -0.41,0.81 -0.62,1.21 0.06,-0.01 0.12,-0.01 0.17,-0.02zm7.78 -28.52c0.33,-1.38 0.5,-2.78 0.59,-4.19 -0.09,-0 -0.19,-0.01 -0.28,-0.01 -2.42,0.08 -4.78,0.64 -7.13,1.14 -1.14,0.24 -2.26,0.57 -3.38,0.88 -1.15,0.35 -2.3,0.71 -3.44,1.06 -0.33,0.1 -0.65,0.23 -0.98,0.35 -0.31,0.11 -0.62,0.23 -0.93,0.34 0.05,0.05 0.1,0.09 0.16,0.14 3.44,2.9 6.91,5.77 10.35,8.67 0.45,0.38 0.9,0.75 1.34,1.13 0.74,-1.65 1.44,-3.31 2.1,-4.99 0.59,-1.49 1.14,-2.99 1.58,-4.52zm-24.21 -2.37c-0.52,-0.43 -1.05,-0.85 -1.58,-1.26 -1.09,-0.84 -2.17,-1.68 -3.35,-2.38 -0.5,-0.26 -1,-0.5 -1.53,-0.67 -0.28,-0.05 -0.54,-0.08 -0.82,-0.1 -0.11,0.01 -0.22,0.03 -0.34,0.05 -0.04,0.01 -0.09,0.04 -0.13,0.05 -0.1,0.07 -0.2,0.15 -0.3,0.23 -0.08,0.11 -0.17,0.23 -0.25,0.35 -0.15,0.32 -0.27,0.64 -0.37,0.97 -0.22,1.01 -0.31,2.04 -0.32,3.07 0.03,1.36 0.19,2.7 0.41,4.05 0.01,0.11 0.03,0.21 0.05,0.32 0.41,-0.21 0.82,-0.42 1.23,-0.63 0.29,-0.14 0.58,-0.27 0.88,-0.39 0.13,-0.06 0.28,-0.12 0.42,-0.18 0.54,-0.24 1.1,-0.48 1.64,-0.73 1.69,-0.74 3.4,-1.44 5.11,-2.14 -0.25,-0.21 -0.5,-0.42 -0.75,-0.63zm-7.43 -4.42c0,0 0.01,0 0.01,0 0.06,-0.02 0.11,-0.03 0.17,-0.05 -0.06,0.01 -0.12,0.03 -0.18,0.05zm-0.01 0c-0.02,0.01 -0.04,0.01 -0.06,0.02 0.02,-0.01 0.04,-0.01 0.07,-0.02 -0.01,0 -0.01,0 -0.01,0zm-14.27 19.1c0.91,-1.25 2.02,-2.37 3.16,-3.41 0.7,-0.63 1.44,-1.19 2.2,-1.75 0.98,-0.73 1.98,-1.42 2.99,-2.1 0.34,-0.23 0.69,-0.45 1.05,-0.66 -0.34,-1.57 -0.57,-3.15 -0.71,-4.74 -0.11,-1.43 -0.08,-2.88 0.1,-4.31 0.19,-1.57 0.69,-3.23 1.74,-4.44 0.54,-0.64 1.22,-1.09 1.98,-1.43 0.12,-0.04 0.24,-0.07 0.36,-0.11 0.29,-0.1 0.59,-0.16 0.9,-0.21 0.38,-0.07 0.79,-0.03 1.18,-0.03 0.71,0.01 1.45,0.23 2.12,0.45 0.79,0.27 1.52,0.72 2.24,1.13 1.44,0.82 2.73,1.91 4.04,2.92 0.93,0.71 1.81,1.5 2.71,2.25 0.25,0.21 0.51,0.43 0.76,0.64 1.16,-0.44 2.31,-0.86 3.47,-1.29 1.06,-0.39 2.15,-0.68 3.22,-1.02 1.14,-0.35 2.32,-0.65 3.47,-0.96 1.06,-0.28 2.12,-0.51 3.19,-0.74 2.2,-0.47 4.4,-0.85 6.66,-0.8 0.66,0.01 1.25,0.12 1.87,0.33 0.33,0.11 0.63,0.33 0.9,0.53 0.28,0.22 0.7,0.68 0.82,1.03 0.1,0.33 0.2,0.65 0.24,1 0.04,0.34 0.01,0.7 0,1.04 -0.02,0.28 -0.03,0.57 -0.05,0.85 -0.05,0.58 -0.1,1.16 -0.16,1.74 -0.13,1.25 -0.44,2.47 -0.79,3.69 -0.64,2.23 -1.55,4.39 -2.45,6.53 -0.54,1.28 -1.09,2.55 -1.67,3.82 0.27,0.23 0.54,0.47 0.8,0.71 0.31,0.27 0.61,0.54 0.92,0.81 0.01,0.01 0.02,0.02 0.03,0.03 0.7,0.6 1.38,1.21 2.04,1.85 0.3,0.3 0.6,0.59 0.9,0.88 0.19,0.19 0.39,0.38 0.58,0.58 0.42,0.41 0.83,0.81 1.25,1.22 0.16,0.16 0.31,0.33 0.47,0.5 0.11,0.1 0.2,0.2 0.31,0.3 0.37,0.34 0.74,0.69 1.1,1.04 0.32,0.31 0.65,0.61 0.96,0.94 0.67,0.7 1.32,1.42 1.82,2.26 0.25,0.41 0.45,0.86 0.6,1.32 0.25,0.75 0.2,1.56 -0.16,2.26 -0.4,0.77 -1.18,1.11 -1.94,1.4 -0.42,0.16 -0.84,0.31 -1.27,0.47 -0.66,0.25 -1.31,0.51 -2,0.69 -0.74,0.19 -1.49,0.34 -2.23,0.51 -0.26,0.06 -0.53,0.12 -0.79,0.18 0,0 -0.01,0 -0.01,0 0.06,-0.01 0.11,-0.03 0.17,-0.04 -0.16,0.04 -0.33,0.09 -0.51,0.11 -0.1,0.02 -0.2,0.05 -0.31,0.07 -0.23,0.06 -0.46,0.12 -0.69,0.18 -0.31,0.08 -0.63,0.15 -0.94,0.22 -0.03,0.01 -0.07,0.02 -0.1,0.03 -2.17,0.58 -4.34,1.19 -6.55,1.6 -1.45,0.27 -2.94,0.38 -4.42,0.38 -0.16,0.25 -0.31,0.5 -0.45,0.74 -1.28,2.11 -2.81,4.07 -4.51,5.86 -1.02,1.08 -2.08,2.1 -3.29,2.97 -1.42,1.01 -3.42,1.94 -5.06,0.87 -0.6,-0.39 -1,-0.96 -1.22,-1.63 -0.07,-0.21 -0.13,-0.42 -0.2,-0.63 -0.19,-0.57 -0.39,-1.14 -0.57,-1.71 -0.36,-1.07 -0.72,-2.15 -1.08,-3.22 -0.63,-1.85 -1.33,-3.68 -1.94,-5.55 -0.14,-0.03 -0.29,-0.06 -0.44,-0.09 -1.19,-0.25 -2.39,-0.48 -3.59,-0.71 -2.17,-0.41 -4.33,-0.86 -6.45,-1.42 -1.8,-0.48 -3.57,-0.94 -5.26,-1.76 -1.36,-0.66 -2.64,-1.52 -3.54,-2.75 -0.77,-1.06 -0.87,-2.34 -0.87,-3.6 0,-2.88 1.25,-5.55 2.92,-7.84z"/>
   <path class="fil0" d="M1388.56 318.68c0.11,0.53 0.28,1.03 0.48,1.54 0.85,1.79 2.07,3.34 3.29,4.88 1.51,1.79 3.04,3.55 4.62,5.28 0.28,0.31 0.56,0.62 0.84,0.93 0.27,-0.79 0.54,-1.56 0.8,-2.34 0.77,-2.28 1.53,-4.55 2.37,-6.79 0.88,-2.36 1.75,-4.72 2.61,-7.08 0.21,-0.58 0.44,-1.16 0.68,-1.75 -2.49,-0.12 -4.98,-0.2 -7.45,0.14 -1.42,0.25 -2.78,0.61 -4.11,1.15 -0.76,0.35 -1.47,0.76 -2.15,1.25 -0.52,0.44 -0.99,0.91 -1.42,1.43 -0.19,0.29 -0.39,0.58 -0.54,0.9 -0.01,0.03 -0.02,0.07 -0.02,0.1 0,0.13 0,0.25 0.01,0.37zm12.04 29c1.93,-0.33 3.87,-0.79 5.72,-1.43 -0.25,-0.22 -0.5,-0.45 -0.74,-0.67 -0.8,-0.73 -1.64,-1.44 -2.43,-2.19 -0.5,-0.48 -0.99,-0.95 -1.49,-1.42 -0.42,-0.4 -0.81,-0.84 -1.21,-1.26 -0.32,-0.34 -0.64,-0.69 -0.96,-1.03 -0.3,0.93 -0.58,1.87 -0.88,2.8 -0.36,1.13 -0.74,2.24 -1.11,3.36 -0.16,0.48 -0.32,0.96 -0.48,1.44 -0.07,0.2 -0.14,0.41 -0.21,0.61 1.26,0.07 2.53,-0.05 3.78,-0.23zm10.22 -3.22c0.94,-0.44 1.88,-0.88 2.82,-1.31 0.42,-0.2 0.83,-0.44 1.24,-0.65 0.68,-0.36 1.37,-0.71 2.05,-1.06 1.09,-0.57 2.15,-1.19 3.22,-1.78 1,-0.55 2.02,-1.11 3.02,-1.65 1.08,-0.59 2.16,-1.18 3.24,-1.77 -0.39,-1.69 -0.79,-3.4 -1.19,-5.1 -1.12,-4.72 -2.23,-9.45 -3.31,-14.19 -1.16,-0.3 -2.33,-0.59 -3.49,-0.89 -2.28,-0.57 -4.57,-1.14 -6.86,-1.67 -0.96,-0.22 -1.94,-0.38 -2.91,-0.55 -0.28,0.69 -0.56,1.39 -0.83,2.07 -1.59,4.38 -3.25,8.74 -4.74,13.16 -0.67,1.98 -1.36,3.96 -2.04,5.92 0.15,0.17 0.3,0.34 0.45,0.5 1.57,1.73 3.15,3.45 4.89,5.01 1.48,1.32 2.94,2.65 4.43,3.95zm24.43 -13.23c1.43,-0.87 2.84,-1.78 4.17,-2.8 1.14,-0.95 2.16,-2.01 3.13,-3.14 -0.08,-0.06 -0.15,-0.13 -0.22,-0.19 -2.08,-1.45 -4.41,-2.46 -6.7,-3.52 -1.11,-0.51 -2.25,-0.94 -3.38,-1.39 -1.19,-0.42 -2.37,-0.85 -3.56,-1.28 -0.34,-0.12 -0.69,-0.21 -1.03,-0.31 -0.33,-0.1 -0.67,-0.2 -0.99,-0.3 0.02,0.07 0.03,0.14 0.05,0.22 1.06,4.6 2.17,9.18 3.23,13.78 0.14,0.6 0.28,1.2 0.42,1.8 1.65,-0.93 3.28,-1.87 4.9,-2.87zm-20.29 16.22c0.82,0.5 1.7,0.93 2.58,1.31 1.69,0.73 3.41,1.43 5.12,2.11 1.32,0.51 2.64,0.99 3.99,1.43 0.66,0.22 1.32,0.44 1.98,0.66 0.02,0.01 0.04,0.01 0.06,0.01 -0.01,-0.3 -0.03,-0.6 -0.05,-0.9 -0.12,-0.89 -0.28,-1.77 -0.4,-2.65 -0.13,-0.93 -0.24,-1.86 -0.34,-2.79 -0.09,-0.68 -0.18,-1.36 -0.3,-2.04 -0.13,-0.74 -0.28,-1.49 -0.43,-2.24 -0.09,-0.48 -0.19,-0.98 -0.28,-1.47 -1.37,0.74 -2.74,1.48 -4.11,2.23 -1.15,0.64 -2.3,1.27 -3.46,1.91 -1.07,0.59 -2.17,1.13 -3.24,1.69 -0.42,0.22 -0.85,0.42 -1.28,0.63 0.05,0.04 0.11,0.07 0.16,0.1zm5.64 -36.23c-0.16,-0.69 -0.34,-1.37 -0.53,-2.05 -0.39,-1.39 -0.77,-2.77 -1.32,-4.11 -0.25,-0.53 -0.53,-1.04 -0.86,-1.52 -0.2,-0.21 -0.41,-0.41 -0.62,-0.6 -0.1,-0.06 -0.21,-0.12 -0.31,-0.16 -0.05,-0.01 -0.1,-0.03 -0.15,-0.04 -0.13,0 -0.26,0 -0.39,0.01 -0.15,0.04 -0.29,0.08 -0.43,0.13 -0.32,0.17 -0.62,0.37 -0.92,0.57 -0.82,0.71 -1.54,1.52 -2.2,2.37 -0.83,1.17 -1.54,2.4 -2.2,3.66 -0.05,0.1 -0.11,0.2 -0.16,0.31 0.48,0.08 0.95,0.16 1.43,0.25 0.33,0.06 0.65,0.14 0.98,0.22 0.15,0.04 0.31,0.08 0.46,0.11 0.61,0.14 1.22,0.28 1.83,0.42 1.89,0.44 3.76,0.93 5.63,1.42 -0.08,-0.33 -0.16,-0.67 -0.24,-1zm-3.45 -8.38c0,0 0.01,0.01 0.01,0.01 0.06,0.02 0.11,0.04 0.18,0.07 -0.06,-0.02 -0.12,-0.05 -0.18,-0.07zm-0.02 -0.01c-0.02,-0.01 -0.04,-0.01 -0.06,-0.01 0.02,0.01 0.04,0.01 0.07,0.02 -0,0 -0.01,0 -0.01,-0.01zm-31.35 11.79c1.81,-2.41 4.54,-3.87 7.38,-4.74 1.54,-0.47 3.19,-0.72 4.79,-0.87 0.98,-0.09 1.96,-0.09 2.94,-0.08 1.28,0.01 2.56,0.06 3.84,0.13 0.43,0.02 0.86,0.05 1.29,0.1 0.71,-1.52 1.5,-3 2.39,-4.42 0.8,-1.27 1.75,-2.46 2.79,-3.55 1.14,-1.2 2.61,-2.28 4.25,-2.64 0.86,-0.19 1.71,-0.15 2.56,0.05 0.12,0.04 0.24,0.09 0.37,0.13 0.31,0.1 0.6,0.23 0.89,0.38 0.37,0.18 0.68,0.48 1.01,0.72 0.6,0.46 1.07,1.1 1.49,1.71 0.5,0.71 0.82,1.56 1.17,2.36 0.69,1.6 1.09,3.31 1.55,4.98 0.33,1.19 0.57,2.4 0.85,3.6 0.08,0.34 0.16,0.68 0.24,1.02 1.24,0.35 2.48,0.73 3.72,1.1 1.13,0.34 2.23,0.78 3.34,1.17 1.19,0.43 2.35,0.91 3.51,1.38 1.06,0.43 2.1,0.9 3.15,1.39 2.14,0.99 4.23,2.05 6.09,3.51 0.54,0.43 0.97,0.9 1.37,1.46 0.2,0.29 0.31,0.67 0.41,1.01 0.1,0.36 0.16,1.02 0.04,1.38 -0.11,0.34 -0.24,0.67 -0.42,0.99 -0.19,0.31 -0.43,0.59 -0.66,0.87 -0.19,0.23 -0.38,0.46 -0.58,0.69 -0.4,0.45 -0.81,0.9 -1.23,1.35 -0.9,0.97 -1.93,1.8 -2.98,2.59 -1.94,1.46 -4.06,2.71 -6.16,3.93 -1.26,0.74 -2.53,1.46 -3.8,2.16 0.08,0.37 0.15,0.73 0.23,1.1 0.08,0.42 0.17,0.83 0.26,1.26 0,0.01 0.01,0.02 0.01,0.04 0.2,0.95 0.4,1.89 0.54,2.84 0.07,0.44 0.13,0.87 0.2,1.31 0.05,0.28 0.09,0.57 0.13,0.85 0.09,0.6 0.18,1.2 0.27,1.8 0.04,0.24 0.06,0.48 0.09,0.72 0.02,0.14 0.05,0.29 0.07,0.44 0.09,0.52 0.18,1.04 0.27,1.57 0.07,0.46 0.16,0.93 0.21,1.4 0.11,1.01 0.21,2.01 0.11,3.03 -0.05,0.51 -0.17,1.01 -0.33,1.49 -0.26,0.79 -0.81,1.44 -1.56,1.79 -0.81,0.39 -1.69,0.19 -2.51,-0.05 -0.45,-0.13 -0.91,-0.26 -1.36,-0.39 -0.71,-0.22 -1.43,-0.4 -2.11,-0.68 -0.74,-0.31 -1.46,-0.65 -2.19,-0.98 -0.26,-0.12 -0.52,-0.23 -0.78,-0.35 -0,0 -0,0 -0.01,0 0.05,0.02 0.11,0.05 0.16,0.08 -0.16,-0.08 -0.33,-0.13 -0.49,-0.22 -0.1,-0.04 -0.21,-0.09 -0.31,-0.13 -0.23,-0.1 -0.46,-0.19 -0.69,-0.29 -0.28,-0.12 -0.55,-0.24 -0.83,-0.36 -0.07,-0.03 -0.13,-0.05 -0.19,-0.08 -2.19,-0.87 -4.39,-1.72 -6.51,-2.77 -1.38,-0.69 -2.7,-1.54 -3.94,-2.46 -0.28,0.11 -0.57,0.22 -0.85,0.34 -2.4,0.97 -4.91,1.64 -7.46,2.09 -1.53,0.26 -3.07,0.45 -4.63,0.41 -1.83,-0.04 -4.09,-0.52 -4.79,-2.45 -0.26,-0.7 -0.24,-1.43 0.01,-2.13 0.08,-0.22 0.15,-0.44 0.22,-0.66 0.2,-0.6 0.39,-1.19 0.59,-1.78 0.37,-1.13 0.75,-2.26 1.12,-3.38 0.64,-1.96 1.2,-3.93 1.86,-5.87 -0.1,-0.12 -0.21,-0.24 -0.31,-0.35 -0.84,-0.96 -1.7,-1.91 -2.56,-2.85 -1.56,-1.7 -3.09,-3.44 -4.52,-5.25 -1.21,-1.53 -2.41,-3.04 -3.3,-4.78 -0.73,-1.4 -1.26,-2.94 -1.23,-4.53 0.02,-1.38 0.74,-2.52 1.54,-3.57z"/>
   <path class="fil0" d="M403.83 199.7c0.11,0.19 0.22,0.39 0.32,0.58 0.24,-0.38 0.47,-0.74 0.71,-1.11 0.67,-1.08 1.34,-2.17 2.05,-3.23 0.75,-1.11 1.49,-2.22 2.23,-3.34 0.18,-0.28 0.37,-0.55 0.56,-0.82 -1.27,-0.37 -2.55,-0.72 -3.87,-0.84 -0.76,-0.05 -1.51,-0.02 -2.27,0.09 -0.44,0.1 -0.86,0.22 -1.27,0.39 -0.32,0.16 -0.63,0.35 -0.91,0.57 -0.13,0.12 -0.27,0.25 -0.39,0.39 -0.01,0.01 -0.02,0.04 -0.02,0.05 -0.02,0.06 -0.03,0.13 -0.04,0.19 -0.01,0.29 0.02,0.57 0.06,0.86 0.22,1.03 0.67,1.98 1.1,2.93 0.56,1.11 1.14,2.21 1.75,3.3zm-1.61 8.09c-0.14,0.22 -0.28,0.45 -0.42,0.69 -0.07,0.1 -0.13,0.19 -0.19,0.29 0.64,0.19 1.31,0.28 1.98,0.34 1.05,0.07 2.1,0.07 3.13,-0.04 -0.1,-0.15 -0.2,-0.29 -0.3,-0.44 -0.33,-0.48 -0.68,-0.94 -0.99,-1.43 -0.2,-0.31 -0.39,-0.61 -0.6,-0.92 -0.16,-0.26 -0.31,-0.54 -0.47,-0.81 -0.13,-0.21 -0.25,-0.42 -0.38,-0.64 -0.26,0.44 -0.53,0.9 -0.79,1.34 -0.32,0.54 -0.66,1.07 -0.99,1.61zm7.07 0.9c0.54,-0.11 1.08,-0.22 1.63,-0.34 0.24,-0.04 0.48,-0.12 0.72,-0.18 0.4,-0.1 0.79,-0.2 1.19,-0.3 0.64,-0.16 1.26,-0.35 1.89,-0.53 0.59,-0.16 1.18,-0.32 1.77,-0.48 0.64,-0.17 1.27,-0.34 1.89,-0.52 0.01,-0.93 0.01,-1.85 0.01,-2.78 0,-2.58 0.01,-5.17 0.03,-7.75 -0.57,-0.3 -1.13,-0.59 -1.7,-0.89 -1.1,-0.58 -2.22,-1.15 -3.34,-1.71 -0.47,-0.23 -0.96,-0.43 -1.44,-0.64 -0.23,0.33 -0.46,0.65 -0.69,0.98 -1.37,2.07 -2.75,4.13 -4.07,6.23 -0.59,0.94 -1.19,1.88 -1.78,2.81 0.05,0.11 0.11,0.21 0.16,0.31 0.6,1.09 1.21,2.18 1.92,3.2 0.6,0.86 1.2,1.73 1.81,2.58zm1.78 2.06c0.36,0.36 0.76,0.69 1.17,0.99 0.78,0.59 1.59,1.16 2.4,1.72 0.62,0.42 1.25,0.83 1.89,1.23 0.31,0.19 0.63,0.39 0.95,0.58 0.01,0.01 0.02,0.01 0.03,0.02 0.03,-0.16 0.06,-0.32 0.08,-0.48 0.04,-0.48 0.07,-0.95 0.12,-1.42 0.05,-0.5 0.1,-0.99 0.17,-1.49 0.04,-0.36 0.07,-0.72 0.1,-1.09 0.02,-0.4 0.03,-0.8 0.05,-1.21 0.01,-0.27 0.02,-0.53 0.03,-0.8 -0.8,0.22 -1.6,0.43 -2.4,0.65 -0.67,0.19 -1.34,0.38 -2.02,0.57 -0.63,0.17 -1.26,0.32 -1.89,0.48 -0.24,0.06 -0.49,0.12 -0.74,0.17 0.02,0.02 0.04,0.04 0.07,0.07zm7.34 -19.2c-0.03,-0.77 -0.06,-1.53 -0.18,-2.28 -0.07,-0.31 -0.15,-0.6 -0.26,-0.9 -0.07,-0.13 -0.16,-0.26 -0.25,-0.39 -0.05,-0.05 -0.09,-0.08 -0.14,-0.13 -0.02,-0.01 -0.04,-0.02 -0.07,-0.04 -0.07,-0.02 -0.13,-0.03 -0.21,-0.05 -0.07,0.01 -0.16,0.02 -0.24,0.02 -0.19,0.05 -0.37,0.11 -0.54,0.19 -0.51,0.26 -0.99,0.6 -1.43,0.96 -0.57,0.5 -1.09,1.05 -1.59,1.63 -0.04,0.04 -0.08,0.09 -0.12,0.13 0.24,0.1 0.48,0.2 0.71,0.31 0.16,0.07 0.32,0.16 0.48,0.24 0.07,0.04 0.15,0.07 0.22,0.11 0.3,0.15 0.6,0.3 0.9,0.45 0.93,0.45 1.84,0.94 2.75,1.42 0,-0.19 0,-0.36 0,-0.55 0,-0.38 -0.01,-0.75 -0.02,-1.13zm-0.74 -3.64c0,0 0,0.01 0,0.01 0.03,0.01 0.06,0.04 0.08,0.05 -0.02,-0.02 -0.05,-0.04 -0.08,-0.06zm-0.01 -0.01c-0.01,-0.01 -0.02,-0.01 -0.03,-0.01 0.01,0.01 0.02,0.01 0.03,0.02l0 -0.01zm5.9 16.94c0.84,-0.28 1.69,-0.58 2.5,-0.94 0.71,-0.35 1.37,-0.78 2.01,-1.25 -0.03,-0.04 -0.07,-0.08 -0.1,-0.12 -0.9,-1.01 -1.98,-1.82 -3.04,-2.65 -0.51,-0.4 -1.05,-0.76 -1.58,-1.13 -0.56,-0.37 -1.12,-0.73 -1.68,-1.1 -0.16,-0.1 -0.33,-0.19 -0.5,-0.29 -0.16,-0.09 -0.32,-0.18 -0.48,-0.28 0,0.04 0,0.08 0,0.12 -0.01,2.51 -0.01,5.02 -0.02,7.53 0,0.33 0,0.65 0,0.98 0.97,-0.27 1.93,-0.57 2.89,-0.88zm-21.92 -4.36c-0.6,-1.06 -1.17,-2.16 -1.69,-3.27 -0.43,-0.94 -0.87,-1.87 -1.12,-2.88 -0.21,-0.82 -0.3,-1.68 -0.09,-2.5 0.18,-0.71 0.7,-1.21 1.24,-1.66 1.23,-1.02 2.82,-1.44 4.4,-1.54 0.86,-0.06 1.74,0.02 2.59,0.13 0.51,0.07 1.02,0.19 1.53,0.31 0.66,0.16 1.32,0.35 1.98,0.54 0.22,0.07 0.43,0.13 0.65,0.21 0.55,-0.7 1.14,-1.37 1.78,-1.99 0.57,-0.56 1.21,-1.06 1.89,-1.5 0.73,-0.48 1.63,-0.86 2.52,-0.84 0.47,0.01 0.9,0.13 1.32,0.34 0.05,0.04 0.11,0.07 0.17,0.12 0.15,0.09 0.28,0.19 0.41,0.3 0.17,0.13 0.3,0.33 0.43,0.49 0.25,0.31 0.42,0.7 0.57,1.07 0.16,0.43 0.23,0.91 0.31,1.37 0.16,0.91 0.16,1.85 0.19,2.78 0.02,0.65 0,1.31 0,1.96 0,0.19 0,0.38 0,0.56 0.6,0.34 1.2,0.68 1.79,1.02 0.54,0.31 1.06,0.67 1.58,1.02 0.57,0.37 1.1,0.76 1.66,1.15 0.49,0.36 0.97,0.73 1.46,1.11 0.99,0.77 1.94,1.58 2.72,2.56 0.23,0.29 0.39,0.58 0.53,0.93 0.07,0.17 0.08,0.38 0.09,0.57 0.01,0.2 -0.04,0.54 -0.15,0.73 -0.1,0.16 -0.2,0.32 -0.34,0.45 -0.13,0.14 -0.3,0.25 -0.45,0.37 -0.13,0.1 -0.25,0.19 -0.38,0.28 -0.26,0.19 -0.53,0.37 -0.8,0.55 -0.59,0.39 -1.22,0.69 -1.87,0.98 -1.19,0.52 -2.43,0.9 -3.67,1.28 -0.74,0.22 -1.49,0.44 -2.24,0.65 0,0.2 -0.01,0.39 -0.02,0.6 -0.01,0.23 -0.01,0.45 -0.01,0.68 0,0.01 0,0.02 0,0.03 -0.01,0.51 -0.03,1.02 -0.07,1.53 -0.02,0.24 -0.04,0.47 -0.06,0.7 -0.01,0.16 -0.02,0.31 -0.04,0.46 -0.02,0.33 -0.05,0.65 -0.07,0.97 -0.02,0.12 -0.02,0.24 -0.05,0.35 0,0.09 -0.01,0.18 -0.01,0.27 -0.01,0.28 -0.04,0.57 -0.05,0.84 -0.02,0.25 -0.03,0.5 -0.06,0.75 -0.07,0.54 -0.14,1.08 -0.32,1.59 -0.08,0.25 -0.21,0.5 -0.35,0.73 -0.23,0.37 -0.6,0.64 -1.03,0.74 -0.47,0.1 -0.9,-0.11 -1.29,-0.34 -0.22,-0.12 -0.44,-0.25 -0.66,-0.37 -0.34,-0.19 -0.7,-0.38 -1.02,-0.61 -0.34,-0.25 -0.68,-0.51 -1.02,-0.77 -0.12,-0.1 -0.24,-0.19 -0.36,-0.27 0,0 0,0 0,-0.01 0.02,0.02 0.05,0.04 0.08,0.06 -0.08,-0.05 -0.16,-0.1 -0.23,-0.17 -0.04,-0.04 -0.09,-0.07 -0.14,-0.1 -0.1,-0.08 -0.22,-0.16 -0.32,-0.24 -0.13,-0.09 -0.25,-0.19 -0.39,-0.29 -0.03,-0.02 -0.06,-0.04 -0.09,-0.07 -1.02,-0.72 -2.06,-1.43 -3.03,-2.23 -0.64,-0.52 -1.21,-1.13 -1.74,-1.75 -0.16,0.01 -0.32,0.04 -0.48,0.07 -1.36,0.21 -2.75,0.25 -4.12,0.16 -0.82,-0.05 -1.64,-0.14 -2.45,-0.35 -0.94,-0.25 -2.05,-0.77 -2.18,-1.86 -0.05,-0.39 0.05,-0.77 0.27,-1.1 0.06,-0.1 0.13,-0.22 0.19,-0.32 0.17,-0.28 0.35,-0.57 0.52,-0.85 0.33,-0.54 0.66,-1.07 0.99,-1.61 0.57,-0.93 1.11,-1.89 1.69,-2.81 -0.04,-0.08 -0.07,-0.15 -0.11,-0.22 -0.32,-0.6 -0.65,-1.19 -0.99,-1.79z"/>
   <path class="fil0" d="M548.78 652.57c0.11,0.26 0.24,0.5 0.39,0.74 0.61,0.84 1.38,1.51 2.16,2.18 0.94,0.78 1.9,1.53 2.87,2.27 0.17,0.13 0.35,0.26 0.52,0.4 0.06,-0.43 0.13,-0.85 0.19,-1.28 0.18,-1.24 0.35,-2.48 0.56,-3.71 0.22,-1.29 0.45,-2.59 0.67,-3.88 0.05,-0.32 0.11,-0.64 0.18,-0.96 -1.28,0.18 -2.57,0.37 -3.8,0.79 -0.7,0.26 -1.37,0.58 -2,0.98 -0.35,0.25 -0.68,0.53 -0.98,0.85 -0.22,0.28 -0.42,0.56 -0.6,0.87 -0.07,0.17 -0.14,0.33 -0.19,0.51 -0.01,0.02 -0.01,0.04 -0.01,0.05 0.01,0.06 0.03,0.12 0.04,0.18zm8.94 13.72c0.96,-0.35 1.91,-0.77 2.8,-1.28 -0.15,-0.09 -0.3,-0.18 -0.44,-0.27 -0.48,-0.3 -0.99,-0.58 -1.45,-0.89 -0.3,-0.19 -0.6,-0.39 -0.9,-0.58 -0.25,-0.17 -0.49,-0.36 -0.74,-0.53 -0.2,-0.14 -0.4,-0.28 -0.59,-0.43 -0.06,0.51 -0.12,1.01 -0.18,1.52 -0.07,0.61 -0.16,1.22 -0.25,1.83 -0.03,0.26 -0.07,0.52 -0.1,0.78 -0.01,0.11 -0.03,0.22 -0.05,0.33 0.66,-0.08 1.29,-0.27 1.92,-0.48zm4.93 -2.63c0.44,-0.31 0.88,-0.63 1.32,-0.94 0.19,-0.14 0.39,-0.3 0.57,-0.45 0.32,-0.25 0.64,-0.5 0.95,-0.74 0.51,-0.39 0.99,-0.81 1.48,-1.22 0.46,-0.38 0.93,-0.76 1.4,-1.13 0.49,-0.41 0.99,-0.81 1.49,-1.21 -0.36,-0.84 -0.73,-1.67 -1.09,-2.5 -1.02,-2.32 -2.04,-4.63 -3.05,-6.96 -0.62,-0.04 -1.25,-0.08 -1.87,-0.12 -1.22,-0.08 -2.45,-0.15 -3.68,-0.2 -0.51,-0.02 -1.03,-0.01 -1.54,-0.01 -0.08,0.38 -0.15,0.76 -0.23,1.14 -0.39,2.4 -0.83,4.79 -1.16,7.2 -0.16,1.08 -0.32,2.16 -0.48,3.23 0.09,0.07 0.19,0.14 0.27,0.21 0.97,0.74 1.94,1.47 2.99,2.1 0.88,0.54 1.76,1.08 2.65,1.6zm2.41 1.14c0.47,0.18 0.96,0.31 1.45,0.42 0.94,0.22 1.88,0.41 2.83,0.6 0.72,0.14 1.45,0.25 2.18,0.35 0.37,0.05 0.72,0.1 1.08,0.15 0.02,0 0.02,0 0.03,0 -0.03,-0.16 -0.07,-0.31 -0.11,-0.46 -0.15,-0.44 -0.31,-0.88 -0.46,-1.31 -0.16,-0.47 -0.3,-0.93 -0.43,-1.4 -0.11,-0.34 -0.22,-0.68 -0.35,-1.02 -0.14,-0.37 -0.28,-0.74 -0.43,-1.11 -0.09,-0.24 -0.19,-0.48 -0.28,-0.73 -0.63,0.51 -1.27,1.02 -1.89,1.54 -0.53,0.44 -1.06,0.87 -1.59,1.31 -0.49,0.41 -1,0.79 -1.5,1.18 -0.19,0.16 -0.4,0.3 -0.6,0.45 0.03,0.01 0.06,0.02 0.09,0.04zm8.85 -10.26c0.65,-0.59 1.28,-1.19 1.88,-1.84 0.49,-0.59 0.91,-1.24 1.3,-1.91 -0.04,-0.02 -0.09,-0.05 -0.13,-0.07 -1.2,-0.54 -2.49,-0.84 -3.77,-1.17 -0.61,-0.16 -1.25,-0.27 -1.87,-0.39 -0.65,-0.11 -1.3,-0.21 -1.95,-0.31 -0.19,-0.03 -0.38,-0.04 -0.56,-0.06 -0.18,-0.02 -0.36,-0.04 -0.54,-0.06 0.01,0.04 0.03,0.07 0.04,0.11 0.99,2.26 1.99,4.5 2.98,6.76 0.13,0.29 0.25,0.59 0.38,0.88 0.76,-0.63 1.51,-1.28 2.24,-1.94zm-9.42 -8.86c-0.15,-0.34 -0.3,-0.67 -0.46,-1 -0.33,-0.68 -0.67,-1.34 -1.07,-1.98 -0.19,-0.25 -0.38,-0.48 -0.59,-0.7 -0.13,-0.09 -0.25,-0.17 -0.38,-0.24 -0.06,-0.02 -0.12,-0.04 -0.18,-0.06 -0.02,-0 -0.05,-0.01 -0.07,-0.01 -0.07,0.01 -0.14,0.03 -0.2,0.04 -0.07,0.03 -0.14,0.07 -0.21,0.11 -0.15,0.12 -0.28,0.25 -0.42,0.38 -0.35,0.44 -0.64,0.93 -0.9,1.43 -0.31,0.68 -0.55,1.37 -0.78,2.08 -0.01,0.06 -0.04,0.11 -0.05,0.17 0.25,-0 0.5,-0.01 0.76,-0.01 0.18,-0 0.35,0.01 0.53,0.02 0.08,0.01 0.16,0.01 0.25,0.01 0.33,0.02 0.65,0.03 0.98,0.04 1.01,0.04 2.02,0.12 3.02,0.19 -0.07,-0.16 -0.14,-0.33 -0.22,-0.49zm-2.57 -3.96c0,0 0,0 0,0 0.04,0.01 0.07,0.01 0.1,0.02 -0.03,-0.01 -0.07,-0.02 -0.1,-0.02zm-0.02 -0c-0.01,-0 -0.02,-0 -0.03,-0.01 0.02,0 0.02,0.01 0.04,0.01 0,0 0,-0 -0.01,-0zm-14.94 9.04c0.69,-1.41 1.96,-2.42 3.33,-3.13 0.75,-0.39 1.56,-0.68 2.37,-0.91 0.49,-0.14 0.99,-0.24 1.5,-0.33 0.66,-0.12 1.31,-0.21 1.98,-0.3 0.22,-0.03 0.44,-0.05 0.67,-0.07 0.22,-0.84 0.48,-1.68 0.81,-2.49 0.29,-0.73 0.66,-1.43 1.09,-2.09 0.47,-0.73 1.12,-1.42 1.92,-1.76 0.42,-0.18 0.86,-0.24 1.32,-0.22 0.07,0.01 0.13,0.02 0.2,0.04 0.16,0.02 0.33,0.06 0.48,0.11 0.21,0.06 0.4,0.18 0.59,0.27 0.35,0.18 0.65,0.46 0.93,0.73 0.33,0.32 0.57,0.72 0.83,1.09 0.51,0.76 0.87,1.6 1.27,2.41 0.28,0.58 0.52,1.18 0.78,1.76 0.08,0.17 0.15,0.33 0.22,0.5 0.67,0.06 1.34,0.13 2.02,0.21 0.61,0.07 1.22,0.18 1.82,0.28 0.65,0.1 1.29,0.24 1.94,0.37 0.58,0.12 1.16,0.26 1.74,0.41 1.19,0.3 2.37,0.65 3.46,1.22 0.31,0.16 0.58,0.36 0.83,0.62 0.14,0.13 0.22,0.31 0.31,0.47 0.09,0.18 0.19,0.51 0.16,0.7 -0.03,0.19 -0.06,0.37 -0.13,0.55 -0.06,0.18 -0.16,0.34 -0.25,0.51 -0.07,0.13 -0.15,0.27 -0.23,0.41 -0.16,0.27 -0.33,0.54 -0.5,0.81 -0.36,0.58 -0.81,1.11 -1.28,1.62 -0.86,0.94 -1.82,1.78 -2.78,2.61 -0.57,0.5 -1.16,0.98 -1.75,1.47 0.07,0.18 0.15,0.36 0.22,0.54 0.08,0.21 0.16,0.41 0.25,0.62 0,0.01 0.01,0.01 0.01,0.02 0.19,0.47 0.38,0.93 0.54,1.4 0.08,0.22 0.16,0.43 0.23,0.65 0.05,0.14 0.1,0.28 0.15,0.43 0.11,0.3 0.21,0.59 0.31,0.89 0.04,0.11 0.07,0.22 0.1,0.33 0.03,0.08 0.06,0.17 0.09,0.25 0.1,0.26 0.19,0.52 0.28,0.78 0.09,0.23 0.17,0.46 0.25,0.69 0.16,0.51 0.3,1.02 0.34,1.55 0.02,0.26 0.01,0.53 -0.02,0.79 -0.06,0.43 -0.28,0.82 -0.64,1.07 -0.38,0.28 -0.84,0.26 -1.29,0.22 -0.25,-0.02 -0.49,-0.05 -0.73,-0.07 -0.39,-0.04 -0.77,-0.07 -1.15,-0.15 -0.41,-0.08 -0.81,-0.19 -1.22,-0.29 -0.14,-0.03 -0.29,-0.07 -0.43,-0.1l0 0c0.03,0.01 0.06,0.01 0.09,0.02 -0.09,-0.02 -0.19,-0.04 -0.28,-0.07 -0.05,-0.01 -0.11,-0.03 -0.17,-0.04 -0.13,-0.02 -0.25,-0.05 -0.38,-0.08 -0.15,-0.04 -0.31,-0.07 -0.46,-0.11 -0.03,-0.01 -0.07,-0.01 -0.11,-0.02 -1.2,-0.24 -2.42,-0.47 -3.6,-0.8 -0.77,-0.22 -1.53,-0.53 -2.25,-0.88 -0.13,0.08 -0.27,0.17 -0.4,0.25 -1.14,0.73 -2.37,1.31 -3.63,1.78 -0.76,0.28 -1.53,0.53 -2.34,0.65 -0.94,0.15 -2.14,0.13 -2.69,-0.8 -0.2,-0.34 -0.26,-0.71 -0.2,-1.09 0.02,-0.12 0.04,-0.24 0.05,-0.36 0.05,-0.32 0.09,-0.65 0.13,-0.97 0.08,-0.61 0.16,-1.22 0.25,-1.84 0.14,-1.06 0.24,-2.13 0.4,-3.19 -0.07,-0.05 -0.13,-0.1 -0.19,-0.15 -0.52,-0.41 -1.05,-0.82 -1.58,-1.22 -0.96,-0.73 -1.92,-1.47 -2.82,-2.26 -0.77,-0.67 -1.52,-1.33 -2.15,-2.14 -0.51,-0.65 -0.93,-1.38 -1.07,-2.2 -0.12,-0.71 0.14,-1.36 0.45,-1.98z"/>
   <path class="fil0" d="M1279.31 160.85c0.3,0.99 0.8,1.89 1.31,2.79 0.64,1.04 1.29,2.07 1.97,3.1 0.12,0.19 0.24,0.37 0.36,0.55 0.21,-0.38 0.41,-0.77 0.6,-1.15 0.58,-1.11 1.16,-2.23 1.77,-3.32 0.65,-1.15 1.28,-2.31 1.92,-3.45 0.16,-0.29 0.32,-0.57 0.49,-0.85 -1.28,-0.26 -2.56,-0.51 -3.87,-0.53 -0.75,0.02 -1.49,0.1 -2.22,0.27 -0.42,0.13 -0.82,0.28 -1.21,0.48 -0.3,0.19 -0.59,0.39 -0.85,0.63 -0.13,0.13 -0.25,0.27 -0.36,0.42 -0.01,0.02 -0.01,0.03 -0.02,0.05 -0.01,0.06 -0.02,0.13 -0.02,0.19 0.01,0.28 0.06,0.56 0.12,0.83zm2.32 13.95c-0.12,0.23 -0.24,0.47 -0.36,0.71 -0.05,0.1 -0.11,0.19 -0.16,0.3 0.65,0.13 1.31,0.17 1.98,0.18 1.02,-0.01 2.06,-0.09 3.07,-0.28 -0.11,-0.13 -0.22,-0.27 -0.33,-0.4 -0.36,-0.44 -0.73,-0.87 -1.08,-1.33 -0.22,-0.28 -0.44,-0.57 -0.66,-0.85 -0.19,-0.25 -0.35,-0.5 -0.52,-0.75 -0.14,-0.2 -0.28,-0.4 -0.42,-0.6 -0.22,0.45 -0.45,0.92 -0.68,1.38 -0.27,0.55 -0.56,1.1 -0.85,1.65zm7 0.34c0.52,-0.15 1.04,-0.3 1.57,-0.45 0.24,-0.07 0.46,-0.16 0.69,-0.23 0.38,-0.13 0.77,-0.26 1.15,-0.39 0.61,-0.21 1.21,-0.44 1.81,-0.67 0.57,-0.2 1.13,-0.4 1.7,-0.6 0.61,-0.22 1.22,-0.44 1.82,-0.66 -0.07,-0.91 -0.13,-1.82 -0.21,-2.73 -0.2,-2.54 -0.39,-5.07 -0.57,-7.6 -0.58,-0.25 -1.16,-0.49 -1.74,-0.74 -1.13,-0.48 -2.27,-0.96 -3.42,-1.42 -0.48,-0.19 -0.97,-0.36 -1.46,-0.52 -0.2,0.34 -0.4,0.67 -0.6,1.01 -1.18,2.14 -2.38,4.26 -3.51,6.43 -0.5,0.98 -1.02,1.94 -1.54,2.9 0.07,0.1 0.13,0.2 0.19,0.3 0.67,1.02 1.35,2.04 2.13,2.99 0.66,0.8 1.31,1.6 1.98,2.4zm13.7 -4.88c0.81,-0.34 1.61,-0.69 2.38,-1.11 0.67,-0.4 1.28,-0.87 1.87,-1.38 -0.03,-0.04 -0.07,-0.08 -0.1,-0.11 -0.96,-0.92 -2.08,-1.63 -3.18,-2.36 -0.53,-0.36 -1.09,-0.67 -1.64,-0.99 -0.58,-0.31 -1.16,-0.63 -1.74,-0.94 -0.17,-0.09 -0.34,-0.17 -0.51,-0.25 -0.16,-0.07 -0.33,-0.16 -0.49,-0.23 0,0.04 0,0.07 0.01,0.12 0.18,2.46 0.38,4.93 0.56,7.39 0.02,0.32 0.05,0.64 0.07,0.96 0.93,-0.34 1.85,-0.71 2.76,-1.09zm-11.8 6.76c0.38,0.32 0.8,0.61 1.23,0.88 0.82,0.52 1.65,1.02 2.48,1.51 0.64,0.37 1.29,0.72 1.95,1.07 0.33,0.16 0.65,0.33 0.98,0.49 0.01,0.01 0.02,0.01 0.03,0.01 0.02,-0.16 0.03,-0.31 0.04,-0.47 0.01,-0.47 -0,-0.93 0,-1.4 0.01,-0.48 0.03,-0.98 0.05,-1.47 0.01,-0.36 0.02,-0.72 0.01,-1.08 -0.01,-0.39 -0.03,-0.8 -0.04,-1.19 -0.01,-0.26 -0.02,-0.52 -0.03,-0.78 -0.77,0.27 -1.54,0.54 -2.3,0.82 -0.65,0.24 -1.29,0.48 -1.94,0.72 -0.6,0.22 -1.21,0.41 -1.81,0.61 -0.24,0.08 -0.48,0.15 -0.71,0.22 0.02,0.01 0.05,0.04 0.07,0.06zm5.83 -18.29c-0.03,-0.37 -0.07,-0.73 -0.11,-1.11 -0.09,-0.75 -0.18,-1.49 -0.35,-2.23 -0.09,-0.29 -0.19,-0.58 -0.32,-0.86 -0.09,-0.12 -0.18,-0.24 -0.28,-0.35 -0.05,-0.04 -0.1,-0.08 -0.15,-0.12 -0.02,-0.01 -0.05,-0.02 -0.07,-0.03 -0.07,-0.01 -0.14,-0.02 -0.2,-0.03 -0.08,0.01 -0.16,0.02 -0.24,0.04 -0.18,0.07 -0.35,0.14 -0.52,0.22 -0.48,0.31 -0.92,0.67 -1.33,1.05 -0.52,0.54 -0.99,1.12 -1.43,1.72 -0.04,0.04 -0.07,0.1 -0.1,0.14 0.24,0.08 0.48,0.16 0.72,0.25 0.17,0.06 0.33,0.13 0.49,0.19 0.08,0.03 0.15,0.07 0.23,0.1 0.31,0.12 0.61,0.25 0.92,0.37 0.94,0.38 1.87,0.78 2.8,1.19 -0.02,-0.18 -0.03,-0.36 -0.04,-0.54zm-1.11 -4.61c0,0 0,0 0,0 0.03,0.02 0.06,0.04 0.09,0.05 -0.03,-0.02 -0.06,-0.04 -0.09,-0.05zm-0.01 -0.01c-0.01,0 -0.02,-0.01 -0.03,-0.01 0.01,0.01 0.02,0.01 0.03,0.02 0,0 0,-0.01 -0,-0.01zm-18.25 5.31c0.12,-0.71 0.58,-1.25 1.08,-1.73 1.13,-1.1 2.66,-1.63 4.2,-1.86 0.84,-0.12 1.71,-0.12 2.55,-0.07 0.51,0.03 1.02,0.11 1.53,0.19 0.66,0.1 1.32,0.24 1.98,0.38 0.22,0.04 0.44,0.1 0.66,0.16 0.49,-0.73 1.02,-1.43 1.59,-2.1 0.52,-0.59 1.1,-1.14 1.73,-1.61 0.69,-0.53 1.53,-0.97 2.41,-1.02 0.46,-0.03 0.9,0.06 1.32,0.22 0.06,0.04 0.12,0.07 0.18,0.1 0.15,0.07 0.29,0.16 0.43,0.27 0.18,0.12 0.31,0.3 0.46,0.46 0.27,0.28 0.47,0.65 0.64,1 0.2,0.41 0.3,0.87 0.41,1.31 0.23,0.88 0.3,1.81 0.41,2.7 0.08,0.64 0.1,1.29 0.15,1.93 0.01,0.18 0.03,0.37 0.04,0.54 0.61,0.28 1.23,0.57 1.84,0.86 0.56,0.27 1.09,0.58 1.63,0.87 0.58,0.32 1.14,0.67 1.71,1 0.51,0.31 1.01,0.63 1.51,0.97 1.03,0.68 2.03,1.4 2.87,2.31 0.25,0.26 0.43,0.54 0.59,0.86 0.08,0.16 0.11,0.36 0.13,0.54 0.02,0.2 0,0.54 -0.09,0.72 -0.08,0.16 -0.18,0.33 -0.3,0.48 -0.12,0.14 -0.27,0.27 -0.42,0.39 -0.11,0.11 -0.23,0.21 -0.35,0.31 -0.25,0.21 -0.49,0.4 -0.74,0.6 -0.54,0.42 -1.14,0.78 -1.75,1.1 -1.13,0.6 -2.32,1.08 -3.5,1.54 -0.71,0.28 -1.42,0.55 -2.14,0.81 0.01,0.19 0.02,0.39 0.03,0.59 0.01,0.22 0.02,0.44 0.03,0.66 0,0.01 0,0.02 0,0.02 0.03,0.51 0.05,1.01 0.05,1.51 0,0.23 0,0.46 -0,0.7 0,0.15 0,0.3 0,0.45 -0,0.32 -0,0.64 -0,0.96 0,0.11 -0.01,0.23 -0.01,0.34 0,0.09 0,0.18 0,0.27 0.01,0.28 0.01,0.55 0.01,0.83 0,0.24 0.01,0.48 -0,0.73 -0.02,0.53 -0.05,1.07 -0.19,1.58 -0.07,0.25 -0.17,0.51 -0.29,0.75 -0.2,0.38 -0.54,0.68 -0.95,0.8 -0.45,0.14 -0.89,-0.04 -1.29,-0.22 -0.23,-0.1 -0.45,-0.21 -0.67,-0.31 -0.35,-0.17 -0.71,-0.33 -1.04,-0.52 -0.36,-0.22 -0.7,-0.46 -1.05,-0.68 -0.12,-0.08 -0.25,-0.16 -0.37,-0.25 -0,0 -0,0 -0.01,0 0.03,0.02 0.05,0.04 0.08,0.05 -0.08,-0.05 -0.16,-0.1 -0.24,-0.16 -0.05,-0.03 -0.1,-0.06 -0.15,-0.09 -0.11,-0.08 -0.22,-0.14 -0.33,-0.21 -0.13,-0.08 -0.27,-0.16 -0.4,-0.25 -0.03,-0.02 -0.06,-0.04 -0.09,-0.06 -1.06,-0.63 -2.14,-1.25 -3.15,-1.96 -0.66,-0.46 -1.27,-1.01 -1.84,-1.59 -0.15,0.04 -0.31,0.07 -0.47,0.1 -1.32,0.31 -2.67,0.45 -4.03,0.48 -0.82,0.01 -1.63,-0.01 -2.43,-0.16 -0.94,-0.17 -2.07,-0.6 -2.28,-1.66 -0.08,-0.38 -0.01,-0.75 0.17,-1.09 0.06,-0.11 0.11,-0.22 0.17,-0.33 0.15,-0.29 0.3,-0.58 0.45,-0.87 0.28,-0.55 0.57,-1.11 0.85,-1.66 0.49,-0.96 0.94,-1.93 1.44,-2.89 -0.04,-0.07 -0.09,-0.13 -0.13,-0.2 -0.36,-0.57 -0.73,-1.13 -1.1,-1.69 -0.67,-1 -1.32,-2.02 -1.92,-3.08 -0.5,-0.89 -1,-1.77 -1.32,-2.74 -0.26,-0.78 -0.42,-1.62 -0.27,-2.44z"/>
   <path class="fil0" d="M2.29 614.71c0.11,0.26 0.24,0.5 0.39,0.74 0.61,0.84 1.38,1.51 2.15,2.19 0.94,0.77 1.9,1.53 2.88,2.27 0.18,0.13 0.35,0.27 0.52,0.4 0.06,-0.43 0.13,-0.85 0.19,-1.28 0.18,-1.24 0.35,-2.47 0.57,-3.71 0.22,-1.29 0.44,-2.59 0.66,-3.88 0.05,-0.32 0.11,-0.64 0.18,-0.96 -1.29,0.18 -2.58,0.37 -3.81,0.78 -0.7,0.27 -1.37,0.58 -2,0.99 -0.35,0.25 -0.68,0.53 -0.98,0.85 -0.22,0.28 -0.42,0.56 -0.59,0.87 -0.07,0.17 -0.14,0.34 -0.19,0.51 0,0.02 0,0.04 -0,0.05 0.01,0.06 0.02,0.12 0.04,0.19zm8.95 13.73c0.96,-0.35 1.91,-0.77 2.8,-1.28 -0.15,-0.09 -0.3,-0.18 -0.45,-0.27 -0.48,-0.3 -0.98,-0.58 -1.45,-0.89 -0.3,-0.19 -0.6,-0.39 -0.9,-0.58 -0.25,-0.17 -0.5,-0.36 -0.74,-0.53 -0.2,-0.14 -0.39,-0.29 -0.59,-0.43 -0.06,0.51 -0.12,1.01 -0.18,1.52 -0.08,0.61 -0.16,1.22 -0.25,1.83 -0.04,0.26 -0.07,0.52 -0.11,0.79 -0.02,0.11 -0.03,0.22 -0.05,0.33 0.66,-0.08 1.29,-0.27 1.92,-0.48zm4.94 -2.63c0.44,-0.32 0.88,-0.63 1.32,-0.94 0.2,-0.14 0.39,-0.3 0.58,-0.45 0.32,-0.25 0.63,-0.5 0.95,-0.74 0.51,-0.39 0.99,-0.81 1.49,-1.22 0.46,-0.38 0.93,-0.76 1.39,-1.14 0.5,-0.41 1,-0.81 1.5,-1.22 -0.36,-0.83 -0.73,-1.67 -1.1,-2.5 -1.03,-2.32 -2.05,-4.64 -3.05,-6.96 -0.62,-0.04 -1.25,-0.08 -1.88,-0.12 -1.23,-0.08 -2.45,-0.15 -3.68,-0.2 -0.51,-0.02 -1.03,-0.01 -1.55,-0.01 -0.08,0.38 -0.15,0.76 -0.23,1.14 -0.4,2.4 -0.83,4.8 -1.17,7.21 -0.16,1.08 -0.32,2.16 -0.48,3.24 0.09,0.07 0.18,0.14 0.28,0.21 0.97,0.74 1.95,1.47 2.99,2.11 0.88,0.54 1.76,1.08 2.66,1.6zm2.41 1.14c0.47,0.18 0.96,0.31 1.45,0.42 0.94,0.22 1.88,0.41 2.83,0.6 0.73,0.14 1.45,0.26 2.18,0.36 0.36,0.05 0.72,0.1 1.08,0.15 0.01,0 0.02,0 0.03,0 -0.03,-0.15 -0.07,-0.31 -0.11,-0.46 -0.15,-0.44 -0.31,-0.88 -0.46,-1.32 -0.16,-0.47 -0.3,-0.93 -0.44,-1.4 -0.11,-0.34 -0.22,-0.68 -0.35,-1.02 -0.14,-0.37 -0.29,-0.74 -0.43,-1.11 -0.09,-0.24 -0.19,-0.49 -0.29,-0.73 -0.63,0.51 -1.26,1.02 -1.89,1.54 -0.53,0.44 -1.06,0.87 -1.59,1.31 -0.49,0.41 -1,0.79 -1.5,1.18 -0.19,0.15 -0.39,0.3 -0.6,0.45 0.03,0.01 0.06,0.02 0.09,0.04zm8.86 -10.27c0.65,-0.58 1.29,-1.19 1.87,-1.83 0.5,-0.6 0.92,-1.24 1.3,-1.91 -0.04,-0.02 -0.09,-0.05 -0.13,-0.07 -1.2,-0.54 -2.5,-0.84 -3.77,-1.17 -0.62,-0.16 -1.25,-0.27 -1.87,-0.39 -0.65,-0.11 -1.3,-0.21 -1.95,-0.31 -0.19,-0.03 -0.38,-0.04 -0.56,-0.06 -0.18,-0.02 -0.36,-0.04 -0.54,-0.06 0.01,0.04 0.03,0.07 0.05,0.11 0.99,2.26 1.99,4.5 2.98,6.76 0.13,0.29 0.26,0.59 0.39,0.88 0.76,-0.63 1.51,-1.27 2.24,-1.94zm-9.43 -8.87c-0.15,-0.34 -0.3,-0.67 -0.47,-1 -0.33,-0.68 -0.66,-1.35 -1.07,-1.98 -0.18,-0.25 -0.37,-0.48 -0.59,-0.7 -0.12,-0.09 -0.25,-0.17 -0.38,-0.25 -0.06,-0.02 -0.12,-0.04 -0.18,-0.06 -0.02,-0 -0.05,-0.01 -0.08,-0.01 -0.07,0.01 -0.14,0.03 -0.2,0.04 -0.07,0.04 -0.14,0.07 -0.21,0.11 -0.15,0.12 -0.28,0.25 -0.42,0.39 -0.35,0.44 -0.64,0.93 -0.9,1.43 -0.31,0.68 -0.56,1.37 -0.78,2.09 -0.02,0.06 -0.04,0.11 -0.05,0.17 0.25,-0 0.51,-0.01 0.76,-0.01 0.18,-0 0.35,0.01 0.52,0.02 0.08,0 0.17,0.01 0.25,0.01 0.33,0.01 0.65,0.03 0.98,0.04 1.01,0.04 2.02,0.12 3.03,0.19 -0.07,-0.16 -0.15,-0.33 -0.22,-0.49zm-2.57 -3.97c0,0 0,0 0.01,0 0.03,0.01 0.06,0.01 0.1,0.02 -0.04,-0.01 -0.07,-0.01 -0.1,-0.02zm-0.01 0c-0.01,-0 -0.02,-0 -0.03,-0.01 0.01,0 0.02,0 0.04,0.01 -0,0 -0,0 -0.01,0zm-14.96 9.05c0.7,-1.41 1.96,-2.42 3.33,-3.14 0.74,-0.39 1.57,-0.68 2.37,-0.91 0.49,-0.14 1,-0.24 1.5,-0.33 0.66,-0.12 1.32,-0.21 1.98,-0.3 0.22,-0.03 0.44,-0.05 0.67,-0.07 0.21,-0.85 0.48,-1.69 0.8,-2.5 0.29,-0.73 0.66,-1.43 1.09,-2.09 0.47,-0.73 1.12,-1.42 1.93,-1.76 0.42,-0.18 0.86,-0.24 1.32,-0.22 0.07,0.01 0.13,0.02 0.2,0.04 0.17,0.02 0.33,0.06 0.49,0.11 0.21,0.06 0.4,0.18 0.59,0.27 0.35,0.18 0.65,0.46 0.93,0.73 0.32,0.32 0.57,0.72 0.82,1.1 0.51,0.75 0.88,1.6 1.27,2.41 0.28,0.57 0.52,1.17 0.78,1.76 0.07,0.17 0.15,0.33 0.22,0.5 0.67,0.06 1.34,0.14 2.01,0.21 0.61,0.07 1.22,0.19 1.82,0.28 0.65,0.1 1.29,0.24 1.94,0.37 0.59,0.12 1.16,0.26 1.74,0.41 1.19,0.3 2.37,0.65 3.46,1.22 0.32,0.16 0.59,0.36 0.84,0.62 0.13,0.13 0.23,0.31 0.31,0.48 0.09,0.18 0.18,0.51 0.15,0.7 -0.02,0.19 -0.05,0.37 -0.12,0.55 -0.07,0.18 -0.16,0.34 -0.26,0.51 -0.08,0.13 -0.15,0.27 -0.23,0.41 -0.16,0.27 -0.33,0.54 -0.5,0.81 -0.37,0.59 -0.82,1.11 -1.28,1.62 -0.85,0.94 -1.82,1.78 -2.78,2.61 -0.58,0.5 -1.16,0.99 -1.75,1.47 0.07,0.18 0.15,0.36 0.22,0.54 0.08,0.21 0.17,0.41 0.25,0.62 0,0.01 0.01,0.01 0.01,0.02 0.19,0.46 0.38,0.93 0.55,1.4 0.08,0.22 0.15,0.44 0.23,0.65 0.05,0.14 0.1,0.28 0.15,0.42 0.11,0.3 0.21,0.6 0.31,0.9 0.04,0.11 0.07,0.22 0.11,0.33 0.03,0.08 0.06,0.17 0.09,0.25 0.1,0.26 0.19,0.52 0.29,0.78 0.08,0.23 0.17,0.46 0.24,0.7 0.16,0.51 0.3,1.02 0.34,1.55 0.02,0.26 0.01,0.53 -0.02,0.8 -0.06,0.42 -0.28,0.81 -0.63,1.07 -0.38,0.28 -0.85,0.26 -1.29,0.22 -0.24,-0.02 -0.49,-0.05 -0.74,-0.08 -0.38,-0.04 -0.77,-0.07 -1.15,-0.15 -0.41,-0.08 -0.81,-0.19 -1.22,-0.29 -0.15,-0.04 -0.29,-0.07 -0.43,-0.1 -0,0 -0,0 -0,0 0.03,0.01 0.06,0.01 0.09,0.02 -0.09,-0.02 -0.18,-0.04 -0.27,-0.07 -0.06,-0.01 -0.11,-0.03 -0.17,-0.04 -0.13,-0.03 -0.25,-0.05 -0.38,-0.08 -0.15,-0.03 -0.31,-0.07 -0.46,-0.11 -0.04,-0.01 -0.07,-0.02 -0.11,-0.02 -1.21,-0.24 -2.42,-0.47 -3.6,-0.8 -0.78,-0.22 -1.53,-0.53 -2.26,-0.89 -0.13,0.08 -0.27,0.17 -0.4,0.25 -1.14,0.73 -2.37,1.31 -3.63,1.78 -0.76,0.28 -1.53,0.53 -2.33,0.65 -0.94,0.15 -2.15,0.13 -2.69,-0.8 -0.2,-0.34 -0.26,-0.71 -0.2,-1.09 0.02,-0.12 0.03,-0.24 0.05,-0.36 0.04,-0.32 0.09,-0.65 0.13,-0.97 0.08,-0.62 0.17,-1.23 0.25,-1.84 0.14,-1.06 0.24,-2.13 0.39,-3.19 -0.06,-0.05 -0.13,-0.1 -0.19,-0.15 -0.53,-0.41 -1.05,-0.82 -1.59,-1.22 -0.96,-0.73 -1.91,-1.47 -2.82,-2.26 -0.77,-0.67 -1.53,-1.33 -2.15,-2.14 -0.51,-0.65 -0.93,-1.39 -1.07,-2.21 -0.12,-0.71 0.14,-1.36 0.45,-1.98z"/>
   <path class="fil0" d="M701.21 302.18c0.02,0.06 0.03,0.13 0.05,0.19 0.13,0.25 0.28,0.48 0.45,0.72 0.68,0.8 1.5,1.42 2.33,2.05 1.01,0.71 2.03,1.4 3.07,2.07 0.19,0.12 0.37,0.24 0.55,0.36 0.03,-0.43 0.07,-0.87 0.1,-1.31 0.09,-1.26 0.17,-2.52 0.3,-3.78 0.13,-1.32 0.26,-2.64 0.38,-3.96 0.03,-0.33 0.07,-0.66 0.11,-0.99 -1.28,0.28 -2.57,0.57 -3.78,1.07 -0.68,0.32 -1.34,0.69 -1.94,1.14 -0.34,0.28 -0.65,0.59 -0.93,0.93 -0.2,0.3 -0.38,0.6 -0.53,0.93 -0.06,0.18 -0.12,0.35 -0.16,0.53 0,0.01 0.01,0.04 0.01,0.05zm10.07 13.36c0.94,-0.42 1.87,-0.92 2.72,-1.49 -0.15,-0.08 -0.3,-0.16 -0.46,-0.24 -0.51,-0.26 -1.03,-0.51 -1.53,-0.79 -0.32,-0.17 -0.63,-0.35 -0.96,-0.52 -0.27,-0.15 -0.52,-0.32 -0.78,-0.49 -0.21,-0.13 -0.42,-0.26 -0.63,-0.39 -0.02,0.51 -0.04,1.02 -0.07,1.54 -0.03,0.63 -0.08,1.25 -0.12,1.87 -0.01,0.27 -0.03,0.53 -0.04,0.8 -0.01,0.11 -0.02,0.22 -0.03,0.34 0.66,-0.13 1.28,-0.37 1.89,-0.63zm4.78 -3.01c0.42,-0.35 0.83,-0.7 1.26,-1.04 0.19,-0.16 0.36,-0.34 0.54,-0.5 0.3,-0.27 0.6,-0.54 0.9,-0.81 0.48,-0.44 0.94,-0.9 1.4,-1.34 0.44,-0.42 0.88,-0.84 1.32,-1.25 0.47,-0.45 0.95,-0.89 1.42,-1.34 -0.43,-0.81 -0.85,-1.63 -1.28,-2.44 -1.2,-2.26 -2.4,-4.52 -3.58,-6.79 -0.64,0.01 -1.27,0.01 -1.9,0.01 -1.24,0.01 -2.48,0.03 -3.73,0.07 -0.51,0.01 -1.04,0.06 -1.55,0.1 -0.05,0.39 -0.1,0.78 -0.15,1.17 -0.22,2.45 -0.48,4.89 -0.66,7.34 -0.07,1.09 -0.16,2.19 -0.25,3.29 0.1,0.07 0.19,0.13 0.29,0.19 1.04,0.67 2.07,1.34 3.16,1.9 0.93,0.48 1.85,0.96 2.79,1.42zm2.51 0.97c0.48,0.14 0.99,0.25 1.49,0.32 0.96,0.15 1.93,0.28 2.89,0.39 0.75,0.09 1.49,0.15 2.23,0.2 0.37,0.02 0.74,0.04 1.1,0.07 0.01,0 0.02,0 0.03,0 -0.04,-0.15 -0.1,-0.31 -0.15,-0.46 -0.18,-0.43 -0.37,-0.86 -0.56,-1.29 -0.19,-0.46 -0.36,-0.92 -0.54,-1.38 -0.13,-0.34 -0.27,-0.67 -0.42,-1 -0.17,-0.36 -0.35,-0.72 -0.52,-1.08 -0.11,-0.24 -0.22,-0.48 -0.34,-0.71 -0.6,0.56 -1.2,1.12 -1.8,1.69 -0.5,0.48 -1,0.96 -1.51,1.43 -0.46,0.44 -0.96,0.86 -1.42,1.3 -0.19,0.16 -0.38,0.33 -0.57,0.48 0.04,0.01 0.07,0.02 0.1,0.03zm8.17 -10.98c0.61,-0.64 1.21,-1.29 1.75,-1.98 0.46,-0.64 0.84,-1.32 1.17,-2.02 -0.04,-0.02 -0.09,-0.04 -0.13,-0.06 -1.26,-0.46 -2.58,-0.67 -3.89,-0.9 -0.64,-0.11 -1.28,-0.18 -1.91,-0.26 -0.67,-0.05 -1.32,-0.11 -1.98,-0.17 -0.19,-0.01 -0.38,-0.01 -0.57,-0.02 -0.19,-0.01 -0.36,-0.02 -0.55,-0.02 0.02,0.03 0.04,0.07 0.06,0.11 1.16,2.2 2.33,4.39 3.49,6.59 0.15,0.28 0.3,0.57 0.45,0.86 0.72,-0.7 1.43,-1.4 2.11,-2.11zm-10.14 -8.24c-0.17,-0.34 -0.36,-0.66 -0.54,-0.98 -0.38,-0.66 -0.76,-1.31 -1.22,-1.92 -0.2,-0.24 -0.41,-0.46 -0.65,-0.66 -0.13,-0.08 -0.26,-0.16 -0.4,-0.22 -0.06,-0.01 -0.12,-0.03 -0.18,-0.04 -0.03,0 -0.06,0 -0.08,0 -0.07,0.02 -0.13,0.04 -0.2,0.06 -0.07,0.04 -0.13,0.08 -0.2,0.13 -0.14,0.13 -0.27,0.27 -0.39,0.42 -0.32,0.47 -0.57,0.98 -0.8,1.5 -0.27,0.71 -0.46,1.43 -0.64,2.16 -0.01,0.06 -0.03,0.12 -0.04,0.18 0.25,-0.02 0.51,-0.04 0.77,-0.06 0.17,-0.01 0.35,-0.02 0.52,-0.02 0.09,0 0.17,0 0.25,0 0.33,-0.01 0.67,-0.02 0.99,-0.03 1.02,-0.03 2.04,-0.03 3.06,-0.03 -0.08,-0.16 -0.17,-0.32 -0.25,-0.48zm-2.88 -3.81c0,0 0,0 0,0 0.04,0.01 0.07,0.01 0.1,0.01 -0.04,-0.01 -0.07,-0.01 -0.1,-0.01zm-0.01 0c-0.01,0 -0.02,0 -0.04,-0.01 0.02,0.01 0.03,0.01 0.04,0.01 0,0 0,0 0,0zm-14.41 10.2c0.6,-1.47 1.81,-2.58 3.13,-3.4 0.73,-0.45 1.53,-0.79 2.33,-1.08 0.49,-0.18 0.99,-0.31 1.49,-0.44 0.66,-0.16 1.31,-0.3 1.98,-0.45 0.22,-0.05 0.44,-0.09 0.67,-0.12 0.16,-0.87 0.37,-1.73 0.63,-2.57 0.25,-0.76 0.57,-1.49 0.95,-2.18 0.43,-0.77 1.02,-1.51 1.81,-1.92 0.42,-0.21 0.85,-0.31 1.31,-0.32 0.07,0.01 0.13,0.02 0.21,0.02 0.16,0.01 0.34,0.04 0.5,0.07 0.21,0.04 0.41,0.15 0.61,0.23 0.36,0.16 0.69,0.42 0.99,0.68 0.35,0.3 0.63,0.68 0.91,1.04 0.57,0.72 1,1.55 1.46,2.33 0.33,0.56 0.61,1.15 0.92,1.72 0.09,0.16 0.17,0.33 0.26,0.49 0.68,0.01 1.36,0.04 2.04,0.06 0.62,0.02 1.24,0.1 1.86,0.16 0.66,0.05 1.31,0.15 1.97,0.23 0.6,0.08 1.19,0.18 1.79,0.28 1.23,0.22 2.43,0.48 3.57,0.98 0.34,0.14 0.61,0.32 0.89,0.56 0.14,0.12 0.25,0.3 0.34,0.45 0.1,0.17 0.22,0.49 0.21,0.7 -0.02,0.19 -0.03,0.38 -0.08,0.56 -0.05,0.18 -0.14,0.36 -0.22,0.53 -0.07,0.14 -0.13,0.29 -0.2,0.43 -0.14,0.29 -0.29,0.57 -0.45,0.86 -0.33,0.61 -0.74,1.17 -1.17,1.72 -0.79,1 -1.7,1.92 -2.61,2.83 -0.54,0.54 -1.1,1.07 -1.65,1.6 0.09,0.18 0.17,0.35 0.26,0.53 0.1,0.2 0.2,0.41 0.3,0.6 0.01,0.01 0.01,0.02 0.02,0.02 0.22,0.46 0.45,0.91 0.66,1.37 0.09,0.21 0.18,0.42 0.27,0.64 0.07,0.13 0.13,0.27 0.19,0.42 0.13,0.3 0.25,0.59 0.38,0.88 0.04,0.1 0.09,0.21 0.13,0.32 0.04,0.08 0.08,0.16 0.11,0.25 0.11,0.25 0.23,0.51 0.34,0.76 0.1,0.22 0.21,0.45 0.3,0.68 0.19,0.5 0.37,1 0.45,1.54 0.04,0.26 0.05,0.54 0.04,0.8 -0.03,0.43 -0.22,0.84 -0.56,1.13 -0.36,0.31 -0.83,0.32 -1.28,0.31 -0.25,-0.01 -0.5,-0.02 -0.74,-0.02 -0.39,-0.02 -0.79,-0.02 -1.17,-0.07 -0.42,-0.05 -0.83,-0.13 -1.25,-0.2 -0.15,-0.02 -0.29,-0.05 -0.44,-0.08 0,0 0,0 -0.01,0 0.04,0.01 0.07,0.01 0.1,0.02 -0.09,-0.02 -0.19,-0.02 -0.28,-0.05 -0.06,-0.01 -0.11,-0.02 -0.17,-0.03 -0.13,-0.02 -0.26,-0.03 -0.4,-0.05 -0.16,-0.02 -0.31,-0.05 -0.47,-0.07 -0.04,-0.01 -0.07,-0.01 -0.1,-0.01 -1.23,-0.16 -2.48,-0.29 -3.69,-0.54 -0.8,-0.16 -1.58,-0.42 -2.34,-0.73 -0.13,0.09 -0.26,0.19 -0.39,0.28 -1.1,0.81 -2.29,1.49 -3.52,2.06 -0.75,0.34 -1.51,0.64 -2.31,0.83 -0.93,0.22 -2.16,0.28 -2.77,-0.6 -0.22,-0.32 -0.31,-0.69 -0.28,-1.09 0.01,-0.12 0.02,-0.24 0.02,-0.37 0.02,-0.33 0.05,-0.65 0.07,-0.99 0.04,-0.62 0.07,-1.25 0.11,-1.87 0.07,-1.08 0.09,-2.16 0.16,-3.25 -0.07,-0.04 -0.13,-0.09 -0.2,-0.14 -0.56,-0.37 -1.12,-0.74 -1.69,-1.1 -1.02,-0.67 -2.04,-1.34 -3.01,-2.07 -0.82,-0.62 -1.63,-1.22 -2.32,-1.99 -0.55,-0.62 -1.04,-1.33 -1.23,-2.15 -0.17,-0.7 0.04,-1.38 0.3,-2.02z"/>
   <path class="fil0" d="M1024.2 1061.47c11.02,0.39 22.04,0.78 33.06,1.18 11.07,0.39 22.14,0.79 33.22,1.18 0.66,0.02 1.33,0.05 1.99,0.07 3.79,0.14 6.83,3.41 6.7,7.19 -0.14,3.79 -3.41,6.83 -7.19,6.7 -11.09,-0.39 -22.18,-0.8 -33.27,-1.19 -11,-0.39 -21.99,-0.78 -32.99,-1.18 -0.67,-0.02 -1.34,-0.04 -2,-0.07 -3.79,-0.14 -6.83,-3.41 -6.7,-7.19 0.13,-3.7 3.27,-6.7 6.95,-6.7 0.08,0 0.16,0 0.24,0l0 0z"/>
   <path class="fil0" d="M1022.84 1132.12c11.02,0.39 22.04,0.78 33.06,1.18 11.07,0.39 22.15,0.79 33.22,1.18 0.67,0.02 1.33,0.05 1.99,0.07 3.79,0.13 6.83,3.41 6.7,7.19 -0.14,3.79 -3.41,6.83 -7.19,6.7 -11.09,-0.39 -22.18,-0.8 -33.27,-1.19 -11,-0.39 -21.99,-0.78 -32.99,-1.18 -0.67,-0.02 -1.34,-0.04 -2,-0.07 -3.79,-0.14 -6.83,-3.41 -6.7,-7.19 0.13,-3.7 3.27,-6.7 6.95,-6.7 0.08,0 0.16,0 0.24,0.01l0 0z"/>
   <path class="fil0" d="M1027.08 1206.59c11.02,0.39 22.04,0.79 33.06,1.18 11.07,0.4 22.15,0.79 33.22,1.18 0.67,0.02 1.33,0.05 1.99,0.07 3.79,0.14 6.83,3.41 6.7,7.19 -0.14,3.79 -3.41,6.83 -7.19,6.7 -11.09,-0.39 -22.18,-0.8 -33.27,-1.19 -11,-0.39 -21.99,-0.78 -32.99,-1.18 -0.67,-0.02 -1.34,-0.04 -2,-0.07 -3.79,-0.14 -6.83,-3.41 -6.7,-7.19 0.13,-3.7 3.27,-6.7 6.95,-6.7 0.08,0 0.16,0 0.24,0l0 0z"/>
   <path class="fil0" d="M1021.65 1281.32c11.02,0.39 22.04,0.78 33.06,1.18 11.08,0.39 22.15,0.79 33.22,1.18 0.67,0.02 1.33,0.05 1.99,0.07 3.79,0.13 6.83,3.41 6.7,7.19 -0.14,3.79 -3.41,6.83 -7.19,6.7 -11.09,-0.39 -22.19,-0.8 -33.27,-1.19 -11,-0.39 -21.99,-0.78 -32.99,-1.18 -0.67,-0.02 -1.34,-0.04 -2.01,-0.07 -3.79,-0.14 -6.83,-3.41 -6.7,-7.19 0.13,-3.7 3.27,-6.7 6.95,-6.7 0.08,0 0.16,0 0.24,0.01l0 0z"/>
   <path class="fil0" d="M1003.66 1364.2c14.46,0.39 28.92,0.78 43.39,1.17 14.53,0.4 29.06,0.79 43.6,1.19 0.87,0.02 1.74,0.05 2.61,0.07 4.97,0.14 8.96,3.41 8.79,7.19 -0.18,3.78 -4.47,6.83 -9.44,6.69 -14.56,-0.39 -29.11,-0.8 -43.67,-1.18 -14.44,-0.39 -28.86,-0.78 -43.3,-1.18 -0.88,-0.02 -1.75,-0.05 -2.63,-0.07 -4.97,-0.13 -8.96,-3.41 -8.79,-7.19 0.18,-3.7 4.29,-6.7 9.12,-6.7 0.11,0 0.21,0 0.32,0.01l0 0z"/>
  </g>
 </g>
</svg>
