<?xml version="1.0" encoding="UTF-8"?>
<!DOCTYPE svg PUBLIC "-//W3C//DTD SVG 1.1//EN" "http://www.w3.org/Graphics/SVG/1.1/DTD/svg11.dtd">
<!-- Creator: CorelDRAW 2020 (64-Bit) -->
<svg xmlns="http://www.w3.org/2000/svg" xml:space="preserve" width="31.3979mm" height="40.099mm" version="1.1" style="shape-rendering:geometricPrecision; text-rendering:geometricPrecision; image-rendering:optimizeQuality; fill-rule:evenodd; clip-rule:evenodd"
viewBox="0 0 423.33 540.65"
 xmlns:xlink="http://www.w3.org/1999/xlink"
 xmlns:xodm="http://www.corel.com/coreldraw/odm/2003">
 <defs>
  <style type="text/css">
   <![CDATA[
    .fil0 {fill:#FEFEFE;fill-rule:nonzero}
   ]]>
  </style>
 </defs>
 <g id="Layer_x0020_1">
  <metadata id="CorelCorpID_0Corel-Layer"/>
  <g id="shutterstock_1044230773.eps">
   <path class="fil0" d="M219.26 527.76c-6,-5.74 -12.97,-10.6 -19.76,-15.36 -4.31,-3.03 -8.65,-6.47 -13.28,-9.02 -0.82,-0.45 -1.84,0.73 -1.04,1.35 10.73,8.38 22.68,15.49 33.76,23.44 0.25,0.18 0.54,-0.21 0.32,-0.42l0 0z"/>
   <path class="fil0" d="M209.67 524.14c-8.6,-5.58 -17.23,-12.39 -26.81,-16.19 -0.62,-0.25 -0.99,0.73 -0.45,1.06 8.84,5.32 17.58,11.28 26.78,15.95 0.54,0.27 0.99,-0.48 0.48,-0.81l0 0z"/>
   <path class="fil0" d="M201.76 523.37c-6.47,-3.47 -12.95,-7.81 -19.79,-10.48 -0.69,-0.27 -1.11,0.82 -0.5,1.18 6.23,3.67 13.08,7.8 20.05,9.84 0.32,0.09 0.53,-0.38 0.23,-0.54l0 0z"/>
   <path class="fil0" d="M93.74 451.26c17.61,12.22 37.24,22.07 56.16,32.09 1.23,0.65 2.33,-1.22 1.09,-1.87 -19.05,-10.02 -37.6,-21.35 -57,-30.65 -0.29,-0.14 -0.51,0.24 -0.25,0.43l0 0z"/>
   <path class="fil0" d="M81.08 451.18c21.29,13.09 43.6,24.69 65.5,36.71 1.23,0.68 2.34,-1.21 1.1,-1.88 -21.96,-11.96 -43.77,-24.49 -66.3,-35.36 -0.35,-0.17 -0.65,0.32 -0.31,0.53l0 0z"/>
   <path class="fil0" d="M90.56 462.2c17.04,11.28 35.48,20.77 53.29,30.76 1.21,0.68 2.29,-1.18 1.08,-1.86 -17.82,-9.99 -35.55,-20.77 -54.07,-29.43 -0.35,-0.16 -0.64,0.31 -0.31,0.53l0 0z"/>
   <path class="fil0" d="M93.72 470.14c15.3,9.44 30.92,18.61 46.83,26.99 1.29,0.68 2.43,-1.26 1.14,-1.96 -15.8,-8.6 -31.33,-18.01 -47.68,-25.54 -0.33,-0.15 -0.61,0.3 -0.29,0.5l0 0z"/>
   <path class="fil0" d="M209.3 505.31c4.95,3.96 9.69,8.18 14.3,12.53 4.87,4.6 9.87,9.19 11.91,15.78 0.28,0.9 1.7,0.52 1.42,-0.39 -3.79,-12.34 -17.5,-20.97 -27.43,-28.18 -0.15,-0.11 -0.35,0.14 -0.2,0.26l0 0z"/>
   <path class="fil0" d="M220.28 504.5c7.47,6.68 14.49,13.74 17.69,23.47 0.32,0.98 1.86,0.58 1.56,-0.43 -2.99,-10.07 -10.91,-17.2 -19.03,-23.33 -0.16,-0.12 -0.37,0.15 -0.22,0.29l0 0z"/>
   <path class="fil0" d="M223.59 502.31c2.69,2.69 5.31,5.28 7.54,8.38 2.05,2.84 3.43,5.97 5.23,8.95 0.38,0.64 1.44,0.23 1.22,-0.52 -1.97,-6.72 -7.8,-13.55 -13.55,-17.39 -0.35,-0.23 -0.73,0.28 -0.44,0.57l0 0z"/>
   <path class="fil0" d="M208.25 477.04c3.27,3.28 6.65,6.4 9.69,9.9 3.34,3.85 6.05,8.06 9.05,12.14 0.49,0.67 1.55,0.1 1.14,-0.67 -4.44,-8.29 -11.91,-16.4 -19.68,-21.65 -0.17,-0.11 -0.35,0.13 -0.21,0.27l0 0z"/>
   <path class="fil0" d="M207.5 465.52c2.12,2.08 4.55,3.84 6.73,5.86 4.35,4.06 7.73,8.66 11.48,13.23 0.55,0.67 1.53,-0.18 1.15,-0.89 -4.03,-7.66 -11.7,-14.16 -18.95,-18.73 -0.33,-0.2 -0.68,0.27 -0.41,0.53l0 0z"/>
   <path class="fil0" d="M207.34 452.53c2.85,2.84 6.29,5.09 9.22,7.87 2.96,2.81 5.56,5.9 8.25,8.95 0.51,0.58 1.53,-0.19 1.08,-0.83 -4.37,-6.19 -11.26,-13.31 -18.4,-16.24 -0.14,-0.06 -0.24,0.15 -0.15,0.25l0 0z"/>
   <path class="fil0" d="M71.86 387.89c-5.46,-0.65 -13.35,-1.8 -18.1,1.67 -0.7,0.51 -0.11,1.47 0.67,1.14 5.61,-2.39 11.5,-1.59 17.43,-1.98 0.54,-0.04 0.52,-0.77 0,-0.83l0 0z"/>
   <path class="fil0" d="M19.73 408.53c-5.18,-1.58 -10.98,-2.57 -16.33,-1.24 -0.8,0.2 -0.65,1.51 0.2,1.46 5.47,-0.32 10.54,-0.81 15.99,0.29 0.33,0.07 0.47,-0.41 0.14,-0.51l0 0z"/>
   <path class="fil0" d="M26.53 419.77c-7.92,-3.02 -16.23,-6.21 -24.72,-7.08 -0.7,-0.07 -0.83,1.05 -0.16,1.22 8.35,2.06 16.62,3.43 24.68,6.61 0.47,0.18 0.67,-0.57 0.21,-0.75l0 0z"/>
   <path class="fil0" d="M21.07 422.22c-5.13,-3.08 -10.18,-6.41 -15.57,-9.03 -0.6,-0.29 -1.09,0.53 -0.53,0.9 5.04,3.25 10.52,5.84 15.82,8.62 0.32,0.17 0.6,-0.3 0.28,-0.49l0 0z"/>
   <path class="fil0" d="M241.11 318.34c1.75,2.16 4.1,3.78 6.24,5.53 2.18,1.79 3.75,3.93 5.72,5.89 0.37,0.37 1.13,0 0.93,-0.54 -0.92,-2.42 -3.27,-4.24 -5.24,-5.8 -2.39,-1.88 -4.9,-3.68 -7.43,-5.36 -0.18,-0.12 -0.32,0.13 -0.21,0.27l0 0z"/>
   <path class="fil0" d="M240.52 309.83c2.33,1.73 4.5,3.67 6.47,5.8 1.82,1.97 3.18,4.31 4.96,6.29 0.49,0.54 1.22,-0.15 0.95,-0.73 -2.28,-4.92 -7.67,-8.96 -12.19,-11.69 -0.21,-0.13 -0.38,0.19 -0.19,0.33l0 0z"/>
   <path class="fil0" d="M242.09 327.5c2.44,2.49 4.9,4.89 6.98,7.7 1.91,2.58 3.21,5.5 5.02,8.11 0.39,0.56 1.4,0.24 1.16,-0.49 -1.97,-6.02 -7.74,-12.21 -12.9,-15.67 -0.21,-0.14 -0.43,0.17 -0.26,0.34l0 0z"/>
   <path class="fil0" d="M239.19 282.54c1.48,1.69 2.89,3.46 4.09,5.37 1.08,1.73 1.79,3.75 2.97,5.39 0.4,0.55 1.28,0.23 1.12,-0.47 -0.91,-4.01 -4.76,-8.08 -7.8,-10.66 -0.26,-0.22 -0.6,0.12 -0.37,0.37l0 0z"/>
   <path class="fil0" d="M243.77 282.72c0.97,1.23 1.99,2.41 2.84,3.73 0.78,1.2 1.33,2.55 2.14,3.74 0.38,0.56 1.37,0.23 1.15,-0.48 -0.88,-2.82 -3.41,-5.73 -5.74,-7.49 -0.32,-0.24 -0.6,0.25 -0.39,0.51l0 0z"/>
   <path class="fil0" d="M246.73 280.55c1.38,1.72 2.64,3.53 4.01,5.25 0.45,0.57 1.38,-0.17 1,-0.77 -1.17,-1.85 -2.85,-3.57 -4.5,-4.99 -0.36,-0.31 -0.81,0.15 -0.52,0.51l0 0z"/>
   <path class="fil0" d="M246.76 274.18c1.46,1.67 2.96,3.25 4.19,5.1 1.12,1.69 1.8,3.66 2.97,5.29 0.42,0.59 1.33,0.24 1.18,-0.5 -0.8,-3.88 -4.81,-8.19 -8.04,-10.28 -0.25,-0.16 -0.48,0.19 -0.3,0.39l0 0z"/>
   <path class="fil0" d="M258.71 269.62c0.46,1.4 1.03,2.75 1.43,4.17 0.4,1.42 0.52,2.94 0.99,4.33 0.22,0.65 1.23,0.57 1.23,-0.17 0.01,-2.79 -1.48,-6.3 -3.07,-8.58 -0.2,-0.28 -0.71,-0.12 -0.59,0.25l0 0z"/>
   <path class="fil0" d="M259.52 264.99c1.16,1.84 2.39,3.59 3.31,5.57 1.02,2.2 1.5,4.49 2.21,6.78 0.2,0.66 1.34,0.58 1.27,-0.17 -0.44,-4.47 -3.04,-9.48 -6.31,-12.55 -0.25,-0.23 -0.67,0.07 -0.48,0.37l0 0z"/>
   <path class="fil0" d="M272.26 269.23c0.37,1.51 0.84,2.99 1.16,4.52 0.32,1.53 0.42,3.09 0.75,4.62 0.14,0.65 1.13,0.49 1.14,-0.15 0.02,-3.05 -1.12,-6.54 -2.71,-9.12 -0.11,-0.18 -0.38,-0.06 -0.33,0.14l0 0z"/>
   <path class="fil0" d="M274.91 247.8c1.39,1.84 2.77,3.62 3.88,5.65 1.23,2.26 1.83,4.65 2.77,7 0.26,0.64 1.42,0.65 1.33,-0.18 -0.51,-4.77 -3.92,-9.91 -7.71,-12.74 -0.16,-0.12 -0.39,0.12 -0.27,0.27l0 0z"/>
   <path class="fil0" d="M280.48 248.6c1.12,2.06 2.15,3.91 2.64,6.24 0.16,0.76 1.34,0.44 1.16,-0.32 -0.53,-2.22 -1.67,-4.7 -3.48,-6.17 -0.18,-0.14 -0.44,0.03 -0.32,0.25l0 0z"/>
   <path class="fil0" d="M329.87 151.94c-3.98,7.43 -6.85,15.95 -8.13,24.27 -0.15,1 1.33,1.47 1.56,0.43 1.91,-8.43 4.26,-16.3 7.32,-24.38 0.17,-0.44 -0.54,-0.73 -0.76,-0.32l0 0z"/>
   <path class="fil0" d="M334.09 150.67c-2.64,4.9 -5.07,10.67 -5.78,16.21 -0.09,0.72 1.01,0.79 1.22,0.17 1.79,-5.41 3.14,-10.76 5.3,-16.07 0.17,-0.43 -0.53,-0.71 -0.74,-0.31l0 0z"/>
   <path class="fil0" d="M342.77 140.25c-4.03,5.75 -7.56,13.33 -8.61,20.32 -0.12,0.8 0.95,1.12 1.23,0.34 2.48,-6.96 4.74,-13.63 7.88,-20.36 0.16,-0.34 -0.28,-0.6 -0.5,-0.29l0 0z"/>
   <path class="fil0" d="M346.54 140.3c-2.09,3.47 -3.73,7.75 -3.81,11.83 -0.01,0.68 1.08,0.86 1.22,0.16 0.8,-4.09 1.52,-7.78 3.2,-11.65 0.17,-0.4 -0.36,-0.74 -0.6,-0.35l0 0z"/>
   <path class="fil0" d="M351.17 137.23c-1.81,3.26 -3.16,6.74 -3.74,10.44 -0.11,0.69 0.94,1 1.07,0.29 0.65,-3.63 1.61,-7.08 3.22,-10.42 0.17,-0.36 -0.34,-0.67 -0.54,-0.32l0 0z"/>
   <path class="fil0" d="M407.38 34.68c3.57,4.33 3.03,11.92 2.91,17.24 -0.12,5.36 -1.07,10.54 -1.86,15.82 -0.15,0.96 1.22,1.4 1.5,0.41 1.78,-6.43 2.15,-13.41 1.81,-20.04 -0.24,-4.72 -0.31,-10.38 -3.96,-13.83 -0.26,-0.24 -0.61,0.12 -0.39,0.39l0 0z"/>
   <path class="fil0" d="M409.37 29.27c3.27,7.86 4.57,15.36 4.27,23.87 -0.04,1.06 1.52,1.02 1.62,0 0.85,-8.28 -1.1,-16.95 -5.31,-24.12 -0.17,-0.29 -0.72,-0.1 -0.57,0.24l0 0z"/>
   <path class="fil0" d="M409.47 21.2c3.28,6.84 4.94,13.16 5.8,20.68 0.11,0.95 1.51,1 1.52,0 0.07,-7.33 -2.5,-15.05 -6.72,-21.03 -0.26,-0.37 -0.79,-0.06 -0.6,0.35l0 0z"/>
   <path class="fil0" d="M410.21 16.58c2.62,4.24 4.04,8.68 4.28,13.66 0.04,0.85 1.35,0.85 1.32,0 -0.17,-5.15 -1.91,-10 -5.12,-14.03 -0.22,-0.27 -0.66,0.08 -0.48,0.37l0 0z"/>
   <path class="fil0" d="M174.25 476.22c-25.14,-14.23 -49.24,-30.03 -75.3,-42.61 -14.58,-7.03 -29.3,-13.86 -44.37,-19.79 -14.28,-5.62 -31.32,-14.26 -47.03,-11.22 -1.71,0.33 -1.35,3.28 0.42,3.08 16.09,-1.77 32.46,5.97 47.13,11.71 15.53,6.08 30.82,12.84 45.93,19.89 25.08,11.7 48.67,26.19 72.8,39.66 0.47,0.26 0.88,-0.45 0.42,-0.71l0 0z"/>
   <path class="fil0" d="M120.54 446.22c9.3,7.77 21.61,12.78 32.17,18.69 10.83,6.05 21.36,12.59 31.61,19.57 9.42,6.4 18.65,13.1 27.47,20.31 9.36,7.65 18.95,16.01 25.33,26.41 0.81,1.32 2.9,0.11 2.08,-1.22 -11.75,-18.99 -32.47,-32.67 -50.64,-44.96 -11.01,-7.45 -22.23,-14.53 -33.86,-20.97 -5.16,-2.86 -10.37,-5.63 -15.56,-8.44 -6.02,-3.26 -12.08,-7.21 -18.55,-9.5 -0.06,-0.02 -0.11,0.07 -0.06,0.11l0 0z"/>
   <path class="fil0" d="M146.7 430.48c-16.94,-9.29 -33.9,-18.27 -51.62,-26.01 -8.45,-3.69 -16.97,-7.22 -25.77,-10.04 -7.47,-2.39 -16.04,-5.66 -23.95,-4.08 -1.73,0.35 -1.35,3.19 0.42,3.08 9.06,-0.54 18.03,2.5 26.54,5.32 8.3,2.75 16.46,5.94 24.55,9.26 16.83,6.9 33.38,14.59 49.42,23.18 0.47,0.25 0.88,-0.46 0.42,-0.71l0 0z"/>
   <path class="fil0" d="M161.1 440.62c11.89,6.71 23.38,14.15 34.38,22.25 11.36,8.36 23.93,17.54 31.46,29.72 0.82,1.32 2.91,0.1 2.08,-1.22 -7.34,-11.75 -19.21,-20.78 -30.31,-28.77 -11.8,-8.5 -24.03,-16.41 -36.74,-23.47 -0.97,-0.54 -1.83,0.94 -0.87,1.48l0 0z"/>
   <path class="fil0" d="M134.87 425.21c7.69,6.5 17.65,10.24 26.21,15.45 1.01,0.61 1.96,-1.05 0.92,-1.57 -8.95,-4.52 -17.57,-10.71 -27.06,-13.99 -0.06,-0.02 -0.11,0.07 -0.06,0.11l0 0z"/>
   <path class="fil0" d="M146.72 417.72c-14.3,-8.51 -28.93,-16.18 -44.21,-22.8 -7.04,-3.06 -14.14,-5.94 -21.48,-8.23 -6.36,-1.98 -13.45,-4.63 -20.17,-3.25 -1.73,0.36 -1.35,3.16 0.42,3.08 14.42,-0.6 29.77,6.63 42.93,11.91 14.39,5.78 28.66,12.22 42.09,20 0.46,0.27 0.87,-0.44 0.42,-0.71l0 0z"/>
   <path class="fil0" d="M141.34 415.59c6.31,5.5 14.7,8.97 21.97,13.05 7.44,4.17 14.69,8.63 21.75,13.42 13.45,9.11 29.11,19.32 37.82,33.36 0.82,1.32 2.91,0.1 2.08,-1.22 -8.4,-13.38 -22.83,-22.96 -35.71,-31.63 -7.61,-5.13 -15.36,-10.02 -23.39,-14.47 -7.82,-4.33 -15.97,-9.82 -24.46,-12.61 -0.06,-0.02 -0.11,0.07 -0.06,0.11l0 0z"/>
   <path class="fil0" d="M167.91 279.25c16.76,5.25 32.77,11 48.16,19.63 14.09,7.9 26.2,17.54 38.03,28.44 0.9,0.83 2.12,-0.42 1.33,-1.33 -10.3,-11.84 -25.03,-20.86 -38.66,-28.3 -14.99,-8.18 -31.86,-15.77 -48.73,-18.89 -0.29,-0.05 -0.41,0.36 -0.12,0.45l0 0z"/>
   <path class="fil0" d="M164.96 284.68c16.76,5.25 32.77,11 48.16,19.63 14.09,7.9 26.2,17.54 38.03,28.44 0.9,0.83 2.13,-0.42 1.33,-1.33 -10.3,-11.84 -25.03,-20.86 -38.66,-28.3 -14.99,-8.18 -31.86,-15.77 -48.73,-18.88 -0.29,-0.05 -0.41,0.36 -0.12,0.45l0 0z"/>
   <path class="fil0" d="M219.03 248.34c10.31,-2.29 20.71,-0.06 30.02,4.82 9.08,4.76 19.51,14.04 19.95,24.96 0.07,1.81 2.95,1.79 2.81,0 -0.92,-11.81 -10.72,-21.37 -20.66,-26.85 -9.28,-5.12 -22.67,-9.46 -32.73,-4.38 -0.83,0.42 -0.23,1.64 0.61,1.45l0 0z"/>
   <path class="fil0" d="M222.37 235.52c12.61,-2.84 25.9,0.48 36.92,7.08 9.83,5.89 20.9,16.4 21.15,28.58 0.04,1.81 2.9,1.8 2.81,0 -0.68,-13.07 -11.21,-23.8 -21.83,-30.4 -10.86,-6.75 -27.38,-12.58 -39.67,-6.71 -0.84,0.4 -0.23,1.64 0.61,1.45l0 0z"/>
   <path class="fil0" d="M218.46 238.96c13.26,-1.14 25.65,0.8 37.09,7.93 10.35,6.45 20.38,16.85 21.61,29.54 0.21,2.2 3.69,2.22 3.47,0 -1.32,-13.27 -10.84,-23.69 -21.61,-30.73 -12.44,-8.13 -26.19,-10.42 -40.66,-7.48 -0.41,0.08 -0.33,0.78 0.1,0.75l0 0z"/>
   <path class="fil0" d="M388.34 20.76c-33.84,17.36 -57.22,47.26 -65.75,84.39 -0.28,1.23 1.48,1.71 1.88,0.52 5.7,-17.17 13.15,-33.76 24.17,-48.2 10.98,-14.39 24.89,-26.23 40.33,-35.62 0.7,-0.42 0.08,-1.45 -0.63,-1.08l0 0z"/>
   <path class="fil0" d="M297.84 157.34c-5.88,9.35 -16.38,13.47 -24.52,20.44 -6.65,5.69 -13.21,13.6 -15.41,22.25 -0.35,1.37 1.52,2.16 2.27,0.96 2.84,-4.59 4.67,-9.56 8.07,-13.85 3.04,-3.83 6.7,-7.26 10.55,-10.26 7.42,-5.78 15.41,-10.41 19.7,-19.15 0.21,-0.44 -0.39,-0.8 -0.66,-0.38l0 0z"/>
   <path class="fil0" d="M189.15 286.09c6.96,-2.19 14.01,-3.04 21.27,-2.26 1.52,0.16 1.52,-2.23 0,-2.38 -7.5,-0.72 -14.68,0.28 -21.85,2.54 -1.33,0.42 -0.76,2.53 0.58,2.1l0 0z"/>
   <path class="fil0" d="M178.49 288.59c2.29,-1.14 4.64,-2.14 7.06,-2.97 1.32,-0.45 0.76,-2.56 -0.58,-2.1 -2.6,0.88 -5.13,1.94 -7.6,3.16 -1.28,0.63 -0.16,2.55 1.12,1.91l0 0z"/>
   <path class="fil0" d="M90.63 375.84c34.85,-22.45 48.31,-67.36 85.33,-87.06 1.24,-0.66 0.14,-2.53 -1.1,-1.88 -37.73,19.56 -51.77,63.3 -84.41,88.71 -0.13,0.1 0.04,0.32 0.18,0.23l0 0z"/>
   <path class="fil0" d="M53.16 396.89c-6.72,3.04 -13.76,4.38 -21.11,4.44 -0.52,0 -0.5,0.75 0,0.79 7.56,0.66 14.76,-1.14 21.29,-4.92 0.21,-0.12 0.03,-0.41 -0.18,-0.31l0 0z"/>
   <path class="fil0" d="M157.73 486.9c-7.86,3.82 -10.19,14.51 -6.31,21.88 0.69,1.31 3.01,0.4 2.45,-1.03 -2.92,-7.42 -0.89,-14.45 4.42,-20.12 0.37,-0.39 -0.09,-0.95 -0.56,-0.73l0 0z"/>
   <path class="fil0" d="M223.91 239.84c-1.74,1.26 -1.97,4.17 -0.93,5.91 0.74,1.23 2.43,0.37 2.21,-0.93 -0.12,-0.69 -0.27,-1.43 -0.25,-2.13 0.01,-0.71 0.28,-1.37 0.32,-2.08 0.04,-0.64 -0.8,-1.16 -1.34,-0.77l0 0z"/>
   <path class="fil0" d="M227.35 252.93c0.8,-2.27 0.87,-4.89 -0.26,-7.07 -0.35,-0.67 -1.39,-0.34 -1.39,0.38 -0,2.17 0.38,4.39 0.58,6.55 0.06,0.61 0.86,0.74 1.07,0.15l0 0z"/>
   <path class="fil0" d="M222.28 270.33c-0.54,0.23 -0.55,0.25 -0.71,0.8 -0.16,0.53 0.52,1.16 1.02,0.78 2.23,-1.71 3.99,-4.1 5.46,-6.47 1.48,-2.38 3.15,-4.99 3.27,-7.85 0.03,-0.68 -0.92,-1.09 -1.38,-0.57 -1.73,1.92 -2.6,4.48 -3.88,6.71 -1.4,2.45 -3.13,4.73 -4.42,7.23 0.32,-0.08 0.63,-0.17 0.95,-0.25 -0.04,-0.1 -0.09,-0.19 -0.13,-0.29 -0,-0.1 -0.1,-0.13 -0.17,-0.1l0 0z"/>
   <path class="fil0" d="M224.51 256.4c-0.08,0.05 -1.18,-7.09 -1.58,-7.98 -1.74,-3.86 -3.01,-6.4 -1.3,-10.62 -0.71,0.71 -1.41,1.41 -2.12,2.12 16.08,-6.42 23.73,-22.25 31.06,-36.84 3.9,-7.76 7.62,-15.84 13.15,-22.62 7.14,-8.77 17.53,-13.69 25.61,-21.43 14.6,-13.98 20.54,-34.01 26.27,-52.79 6.2,-20.31 13.87,-39.28 27.53,-55.82 15.14,-18.35 35.04,-32.68 57.39,-40.88 4.87,-1.79 2.78,-9.63 -2.16,-7.84 -22.51,8.16 -42.66,21.84 -58.37,39.96 -16.12,18.59 -25.11,39.99 -32.21,63.27 -3.46,11.32 -6.87,22.81 -12.61,33.22 -2.84,5.15 -6.21,9.96 -10.35,14.13 -5.11,5.14 -11.28,8.97 -16.97,13.4 -17.25,13.43 -21.97,33.84 -32.78,51.75 -2.98,4.93 -6.55,9.64 -11.22,13.1 -4.08,3.03 -8.33,3.42 -8.87,9.11 -0.25,2.61 0.18,5.26 1.48,7.55 1.43,2.54 3.67,3.72 4.69,6.54 0.7,1.91 1.24,6.73 4.36,4.38 0.99,-0.75 0.11,-2.4 -1,-1.71l0 0z"/>
   <path class="fil0" d="M257.95 276.56c-1.46,1.67 -0.08,2.24 1.6,2.56 3.57,0.7 7.52,0.51 11.14,0.98 2.43,0.31 4.95,0.31 7.31,-0.42 2.51,-0.77 4.42,-2.05 5.14,-4.66 1.83,-6.53 0.65,-12.92 5.24,-18.51 6.86,-8.36 14.45,-16.04 20.49,-25.06 7.51,-11.21 12.33,-23.79 14.19,-37.15 0.73,-5.29 1.2,-10.38 3.14,-15.42 2.79,-7.27 7.24,-13.53 12.75,-18.99 10.45,-10.35 23.11,-18.18 33.86,-28.22 21.24,-19.83 38.51,-44.42 46.3,-72.67 4.71,-17.07 12.09,-68.02 -20.31,-57.63 -5.28,1.69 -3.07,9.96 2.3,8.35 2.77,-0.83 6.51,-2.07 9.16,-0.26 3.66,2.49 3.94,9.44 4.18,13.3 0.8,12.83 -0.93,25.66 -4.5,37.98 -7.17,24.71 -22.01,47.44 -40.4,65.27 -17.42,16.88 -40.82,28.54 -49.25,52.7 -3.44,9.84 -3.09,20.53 -6.52,30.49 -3.79,11.02 -10.16,20.86 -17.56,29.78 -5.93,7.14 -15.78,14.78 -16.89,24.52 -0.42,3.69 1.98,9.73 -2.1,11.75 -2.86,1.42 -6.22,0.13 -9.15,0.16 -1.31,0.01 -8.46,0.87 -9.08,1.93 0.37,-0.63 -0.54,-1.38 -1.04,-0.8l0 0z"/>
   <path class="fil0" d="M224.21 256.79c-1.91,2.6 -3.48,5.43 -5.37,8.06 -1.89,2.63 -4.02,5.06 -5.79,7.78 -1.22,1.88 1.6,4.08 3.11,2.4 4.25,-4.69 7.92,-11.45 9.73,-17.52 0.32,-1.07 -1.1,-1.51 -1.69,-0.71l0 0z"/>
   <path class="fil0" d="M257.86 276.45c-2.23,2.22 -4.18,4.74 -6.21,7.15 -2.99,3.53 -6.29,6.92 -8.81,10.82 -1.23,1.9 1.56,4.02 3.11,2.4 3.21,-3.34 5.61,-7.47 8.19,-11.29 1.77,-2.62 3.66,-5.18 5.17,-7.95 0.5,-0.91 -0.69,-1.88 -1.45,-1.12l0 0z"/>
   <path class="fil0" d="M4.75 411.14c9.85,-13.47 25.08,-11.07 39.52,-14.25 3.18,-0.7 6.19,-1.82 8.82,-3.78 3.75,-2.81 6.28,-6.44 11.35,-6.42 6.89,0.04 13.31,-6.22 18.34,-10.44 14.51,-12.17 26.35,-27.29 37.75,-42.31 11.95,-15.75 24.02,-32.2 40.28,-43.83 17.58,-12.57 41.75,-19.07 61.81,-8.38 3.98,2.12 7.53,-3.94 3.54,-6.05 -17.01,-9 -36.81,-7.48 -54.06,0.09 -18.75,8.23 -33.12,23.7 -45.59,39.49 -12.7,16.09 -24.33,33.01 -38.78,47.63 -3.43,3.47 -7,6.81 -10.77,9.9 -3.39,2.77 -8.06,7.11 -12.52,7.57 -3.73,0.39 -6.33,0.72 -9.57,3.03 -3.83,2.73 -6.35,6.01 -11.16,7.24 -15.59,4 -34.45,0.92 -42.26,18.58 -1,2.26 1.84,3.95 3.31,1.94l0 0z"/>
   <path class="fil0" d="M236.96 536.93c10.08,-15.53 -1.13,-29.39 -6.81,-43.99 -3.01,-7.74 1,-15.4 -2.01,-23.16 -3.41,-8.8 -1.24,-19.48 0.54,-28.59 7.76,-39.71 33.62,-77.95 27.31,-119.6 -2.81,-18.53 -12.52,-36.36 -29.28,-45.62 -3.95,-2.18 -7.5,3.88 -3.54,6.05 15.08,8.27 23.39,24.08 26.09,40.63 3.28,20.05 -2.55,40.49 -9.02,59.3 -6.33,18.42 -13.54,36.55 -17.43,55.7 -1.79,8.82 -3.29,18.2 -2.67,27.22 0.22,3.28 1.69,5.51 2.63,8.53 1.26,4.07 -0.34,7.97 -0.48,12.03 -0.28,7.98 4.82,15.46 8.25,22.31 4.55,9.07 6.59,17.89 2.91,27.68 -0.79,2.12 2.37,3.22 3.5,1.48l0 0z"/>
   <path class="fil0" d="M1.11 411.35c12.76,1.93 25.21,6.53 37.21,11.08 18.06,6.86 35.57,15.06 52.87,23.64 36.91,18.31 73.26,38.81 106.87,62.71 12.11,8.61 23.64,17.76 33.43,28.97 2.49,2.85 6.95,-0.8 5.14,-3.97 -6.14,-10.75 -18.52,-18.93 -28.23,-26.13 -15.67,-11.63 -32.2,-22.13 -48.96,-32.12 -36.2,-21.58 -74.01,-41.49 -113.48,-56.43 -13.56,-5.13 -29.78,-11.64 -44.58,-9.84 -1.06,0.13 -1.58,1.88 -0.28,2.08l0 0z"/>
   <path class="fil0" d="M175.72 523.26c10.9,4.61 21.91,9.03 33.21,12.58 7.54,2.37 15.85,5.12 23.85,4.77 3.47,-0.15 4.7,-5.9 0.87,-6.43 -19.24,-2.67 -37.42,-9.82 -55.23,-17.33 -3.63,-1.53 -6.36,4.86 -2.7,6.4l0 0z"/>
   <path class="fil0" d="M0.11 411.55c3.91,8.13 10.93,14.33 17.66,20.13 10.14,8.75 21.11,16.49 32.25,23.92 27.47,18.32 56.45,34.41 85.94,49.2 3.99,2 7.51,-4.01 3.5,-5.99 -28.83,-14.29 -57.06,-29.93 -84.19,-47.23 -18.78,-11.97 -38.33,-24.79 -53.5,-41.32 -0.86,-0.93 -2.16,0.25 -1.66,1.28l0 0z"/>
   <path class="fil0" d="M157.58 478.69c-9.97,1.13 -18.19,7.88 -20.56,17.85 -2.51,10.57 2.86,21.62 11.83,27.38 8.76,5.63 20.35,4.89 28.74,-1.08 9.59,-6.83 11.56,-18.19 8.38,-29.06 -0.5,-1.69 -2.87,-1.28 -2.99,0.4 -0.58,8.52 -2.71,16.75 -10.26,21.74 -5.65,3.74 -12.89,4.35 -18.75,0.73 -14.28,-8.85 -9.59,-28.74 4.38,-35.12 1.34,-0.61 0.71,-3 -0.77,-2.83l0 0z"/>
   <path class="fil0" d="M223.97 257.07c6.13,2.65 12.26,3.67 17.92,7.65 5.85,4.11 9.32,10.11 14.56,14.69 1.49,1.3 3.34,-0 3.09,-1.8 -1.77,-13.08 -23.19,-25.13 -35.45,-21.44 -0.37,0.11 -0.53,0.73 -0.12,0.91l0 0z"/>
  </g>
 </g>
</svg>
